<svg width="12" height="19" viewBox="0 0 12 19" fill="none" xmlns="http://www.w3.org/2000/svg">
<path d="M2.00024 18.7581C1.82477 18.7591 1.65082 18.7254 1.48837 18.6591C1.32592 18.5927 1.17816 18.495 1.05358 18.3714C0.928606 18.2474 0.829414 18.1 0.761723 17.9375C0.694031 17.775 0.65918 17.6007 0.65918 17.4247C0.65918 17.2487 0.694031 17.0744 0.761723 16.912C0.829414 16.7495 0.928606 16.602 1.05358 16.4781L8.12024 9.42473L1.05358 2.37139C0.802506 2.12032 0.661455 1.7798 0.661455 1.42473C0.661455 1.24891 0.696084 1.07482 0.763364 0.912394C0.830645 0.749965 0.929259 0.602378 1.05358 0.47806C1.1779 0.353742 1.32548 0.255128 1.48791 0.187847C1.65034 0.120567 1.82443 0.0859375 2.00024 0.0859375C2.35531 0.0859375 2.69584 0.226988 2.94691 0.47806L10.9469 8.47806C11.0719 8.60201 11.1711 8.74948 11.2388 8.91196C11.3065 9.07444 11.3413 9.24871 11.3413 9.42473C11.3413 9.60074 11.3065 9.77502 11.2388 9.9375C11.1711 10.1 11.0719 10.2474 10.9469 10.3714L2.94691 18.3714C2.82232 18.495 2.67457 18.5927 2.51212 18.6591C2.34967 18.7254 2.17572 18.7591 2.00024 18.7581Z" fill="#19124F"/>
</svg>
