<svg width="33" height="34" viewBox="0 0 33 34" fill="none" xmlns="http://www.w3.org/2000/svg">
<g clip-path="url(#clip0_5_4320)">
<path d="M9.06692 31.2355H4.56618C3.77039 31.2355 3.0072 30.9193 2.4445 30.3567C1.88179 29.7939 1.56567 29.0307 1.56567 28.235V17.7332C1.56567 16.9374 1.88179 16.1743 2.4445 15.6115C3.0072 15.0489 3.77039 14.7327 4.56618 14.7327H9.06692M9.06692 31.2355V14.7327M9.06692 31.2355H25.9898C26.7133 31.2436 27.4155 30.9901 27.967 30.5214C28.5183 30.0526 28.8817 29.4005 28.9903 28.6851L31.0606 15.1827C31.1258 14.7527 31.0969 14.3136 30.9756 13.8959C30.8543 13.4782 30.6436 13.0919 30.3583 12.7637C30.0729 12.4355 29.7195 12.1732 29.3227 11.9951C28.9258 11.817 28.495 11.7273 28.0601 11.7322H19.5687V5.73121C19.5687 4.53754 19.0945 3.39276 18.2505 2.54871C17.4063 1.70465 16.2616 1.23047 15.0679 1.23047L9.06692 14.7327" stroke="#40354E" stroke-width="2.46074" stroke-linecap="round" stroke-linejoin="round"/>
</g>
<defs>
<clipPath id="clip0_5_4320">
<rect width="31.9896" height="33.22" fill="white" transform="translate(0.335205)"/>
</clipPath>
</defs>
</svg>
