<svg width="24" height="24" viewBox="0 0 24 24" fill="none" xmlns="http://www.w3.org/2000/svg">
<path d="M11 20C6 20 2 16 2 11C2 6 6 2 11 2C16 2 20 6 20 11C20 16 16 20 11 20ZM11 4C7.1 4 4 7.1 4 11C4 14.9 7.1 18 11 18C14.9 18 18 14.9 18 11C18 7.1 14.9 4 11 4Z" fill="#19124F"/>
<path d="M21.0002 22C20.7002 22 20.5002 21.9 20.3002 21.7L16.0002 17.4C15.6002 17 15.6002 16.4 16.0002 16C16.4002 15.6 17.0002 15.6 17.4002 16L21.7002 20.3C22.1002 20.7 22.1002 21.3 21.7002 21.7C21.5002 21.9 21.3002 22 21.0002 22Z" fill="#19124F"/>
</svg>
