<svg width="97" height="96" viewBox="0 0 97 96" fill="none" xmlns="http://www.w3.org/2000/svg">
<g clip-path="url(#clip0_5_5037)">
<path d="M0.533204 43.7235V41.1352C0.565921 41.0041 0.598637 40.9058 0.598637 40.7748C0.631353 40.185 0.631353 39.628 0.696785 39.071C0.860366 37.6949 1.02395 36.3188 1.22024 34.9427C1.41654 33.37 1.7437 31.7974 2.16901 30.2574C2.72519 28.2916 3.51038 26.424 4.49186 24.6548C5.04804 23.6718 5.60421 22.6889 6.1931 21.706C7.07643 20.1333 8.05795 18.6589 9.13755 17.25C10.4135 15.6774 11.8857 14.2685 13.4888 13.0563C15.0919 11.844 16.7605 10.73 18.4617 9.61602C20.7518 8.17437 23.1401 6.96214 25.6592 5.9464C26.4444 5.61878 27.2623 5.3239 28.0475 5.02902C29.029 4.66861 30.0432 4.34098 31.0574 4.01333C32.0716 3.68569 33.0858 3.39081 34.1 3.1287C35.2124 2.83382 36.3574 2.53894 37.4698 2.27683C38.1896 2.11301 38.8766 1.94919 39.5963 1.81813C40.4797 1.65431 41.363 1.49049 42.279 1.35943C43.4568 1.19561 44.6019 1.03179 45.7797 0.86797C46.8593 0.736912 47.939 0.605855 49.0186 0.507562C50.3927 0.40927 51.7667 0.278213 53.1408 0.245449C54.1551 0.212685 55.202 0.343741 56.2162 0.376506C57.5904 0.40927 58.9642 0.540327 60.3713 0.704148C61.8105 0.900731 63.2504 1.22838 64.6242 1.65431C65.7365 1.98195 66.7833 2.37512 67.8629 2.80106C68.6811 3.1287 69.4987 3.52187 70.2841 3.91504C71.1345 4.37374 71.9527 4.8652 72.7703 5.38943C73.7522 6.01196 74.7008 6.63448 75.6494 7.3553C76.8927 8.30542 78.1361 9.2556 79.3139 10.2713C80.3607 11.1559 81.3421 12.1061 82.2907 13.0563C83.4685 14.2358 84.5809 15.4808 85.6932 16.7258C87.2641 18.4296 88.7033 20.2644 89.9794 22.1974C90.7643 23.3442 91.4515 24.5565 92.0404 25.8343C92.4328 26.6862 92.8258 27.5708 93.1527 28.4227C93.5452 29.4056 93.9381 30.3885 94.2323 31.4042C94.723 32.9114 95.1154 34.4513 95.4429 36.024C95.6067 36.8758 95.8026 37.7605 95.9663 38.6123C96.1956 39.8246 96.3588 41.0369 96.3915 42.2492C96.5225 45.1652 96.3588 48.1139 95.8354 50.9972C95.5412 52.832 95.1154 54.6668 94.5271 56.436C93.9709 58.0416 93.382 59.6469 92.8258 61.2522C91.8111 64.0703 90.9608 66.9206 89.7174 69.6399C89.1613 70.8195 88.6051 72.0317 87.9507 73.1785C87.2313 74.4563 86.4459 75.6686 85.5628 76.8482C84.0575 78.978 82.2579 80.9108 80.2298 82.5494C78.2998 84.0564 76.3693 85.5634 74.4066 87.0377C73.3592 87.8242 72.2146 88.4792 71.1017 89.1675C69.6952 89.9868 68.2232 90.7073 66.7178 91.2974C65.9657 91.5921 65.2131 91.9196 64.4277 92.1816C63.3153 92.5424 62.1702 92.8371 61.0257 93.0664C60.3713 93.1974 59.7168 93.3611 59.0297 93.4921C58.2121 93.6564 57.3939 93.7219 56.576 93.8857C54.384 94.2787 52.1921 94.5079 49.9674 94.5734C47.7426 94.6717 45.4852 94.6062 43.2606 94.4424C41.5266 94.3114 39.7599 94.1149 38.0587 93.7874C35.5395 93.3284 33.0858 92.5424 30.763 91.4284C27.6876 89.8886 24.7432 88.1845 21.8641 86.2845C20.2284 85.1704 18.6907 83.8599 17.3166 82.4178C16.1388 81.2061 14.9283 80.0265 13.7833 78.8142C13.0308 78.0277 12.2783 77.2411 11.5586 76.3897C10.937 75.6686 10.3808 74.8821 9.75916 74.1288C8.51593 72.6873 7.43634 71.1142 6.45482 69.4762C5.63693 68.1001 4.88445 66.6914 4.23013 65.2171C3.87025 64.365 3.54309 63.5457 3.21593 62.6943C3.01964 62.1697 2.82334 61.613 2.65976 61.0557C2.43074 60.2369 2.26716 59.4504 2.07087 58.6311C1.87457 57.7141 1.64556 56.8293 1.51469 55.9118C1.31839 54.5685 1.1221 53.1924 0.991231 51.8163C0.860366 50.4402 0.762218 49.0314 0.696785 47.6225C0.631353 46.4102 0.565921 45.1979 0.500488 44.0184C0.598637 43.8874 0.565921 43.8219 0.533204 43.7235Z" fill="white"/>
<path d="M72.4106 74.3581C66.4892 72.523 60.6327 70.4265 54.9074 68.0347C54.6457 67.9364 54.4167 67.8054 54.1549 67.7399C54.0895 67.7072 54.0241 67.6744 53.8932 67.6417C53.5333 67.5101 53.2062 67.3464 52.879 67.1826C52.8463 67.2481 52.7808 67.2809 52.7808 67.3464C52.3555 67.9037 51.8648 68.3622 51.374 68.7551C55.3981 70.0657 59.3566 71.5405 63.2498 73.2441C65.7365 74.3254 68.2554 75.8651 70.8731 76.5207C72.5416 76.9464 74.2756 77.0774 75.9769 77.3067C75.2897 75.9306 74.0464 74.8493 72.4106 74.3581Z" fill="#D6DADF"/>
<path d="M62.1374 77.1755C56.8703 74.8491 51.4394 72.9491 45.943 71.3433C45.714 71.2778 45.5504 71.2123 45.3868 71.0813C44.9942 71.114 44.6344 71.114 44.2091 71.114C40.7412 71.0158 37.2078 72.8509 33.838 71.114C33.0856 70.6883 32.4313 70.1965 32.0059 69.5415C31.7442 72.4573 33.4454 74.7837 36.2264 75.8649C38.1239 76.6187 40.2504 76.9462 42.2788 77.0117C43.0313 77.0445 43.8165 76.979 44.6017 76.8807C45.027 76.8152 45.4523 76.7825 45.8776 76.717C46.1393 76.8807 46.4665 77.0445 46.761 77.1755C47.9387 77.765 49.1492 78.224 50.327 78.748C52.3881 79.6328 54.4819 80.4848 56.5758 81.2708C60.2729 82.6796 70.8402 87.2013 74.6352 88.4136C77.0236 86.8083 79.1501 85.3667 80.1969 83.5317C78.2342 83.2369 64.5586 78.224 62.1374 77.1755Z" fill="#5DD4F6"/>
<path d="M94.2649 64.4307L90.5681 62.9892C88.6704 62.2354 86.7399 61.4816 84.8427 60.7283C83.3701 60.1383 81.9308 59.5161 80.4588 58.926C78.3645 58.0745 76.2708 57.2552 74.1444 56.4362C71.3635 55.3549 68.5826 54.2409 65.8018 53.1597C63.4461 52.2423 61.1231 51.3249 58.768 50.4075C58.5715 50.3092 58.4078 50.1454 58.3095 49.9488C57.5902 48.7038 56.6739 47.5243 55.5616 46.5414C54.1548 45.2963 53.1406 43.953 52.7807 42.1509C52.519 40.7093 52.5844 39.2349 53.0424 37.7933C53.3368 36.8104 53.6967 35.8602 53.893 34.8445C54.4819 32.1579 52.6825 30.4541 50.6869 30.0282C48.9856 29.6678 47.5461 30.3886 46.3356 31.4043C45.5177 32.0923 44.8307 32.8787 44.2417 33.7633C43.5547 35.1722 43.3257 35.8274 43.1621 36.6466C42.9658 38.2193 43.0967 39.2677 43.4239 40.8076C43.7183 42.3148 44.3726 43.7236 45.3214 44.9687C45.4195 45.0997 45.4523 45.2635 45.5177 45.4274L45.6159 45.5584L45.4195 45.4929C45.0924 45.2635 44.7325 45.067 44.3399 44.9032C42.0825 43.8547 39.5633 43.4288 37.0442 43.6581C35.8991 43.7564 34.7868 44.084 33.7726 44.5755C32.7584 45.067 31.875 45.8205 31.2207 46.6397C30.5991 47.3932 30.1738 48.2779 30.0103 49.1952C29.8466 50.1127 29.9121 51.0955 30.2392 51.9802C30.3047 52.1768 30.3374 52.4061 30.4028 52.5699C27.4911 53.6839 26.4769 57.7465 29.3886 60.3348C28.6361 60.9248 28.538 61.7769 28.538 62.5956C28.5053 64.2015 29.6177 65.5775 31.0244 66.626C30.5991 66.888 30.6646 67.412 30.6646 67.7723C30.6646 68.6898 30.9917 69.7383 31.5479 70.4921C32.464 71.5734 33.7726 72.3922 35.2121 72.7857C36.7825 73.2442 38.4183 73.277 39.8905 72.5232C40.414 72.2612 40.872 72.1302 41.4282 72.3922C41.5918 72.4577 41.788 72.4904 41.9516 72.4904C44.4381 72.6214 46.8918 72.6214 48.9202 70.9179C50.785 71.5734 52.5844 72.1629 54.351 72.8512C56.8048 73.7682 59.2587 74.7185 61.7121 75.636C63.9368 76.4881 66.1287 77.3068 68.3534 78.0934C69.1061 78.3554 69.9242 78.6174 70.6763 78.9121C72.2466 79.5022 73.7847 80.0589 75.3222 80.6162C76.0743 80.8782 81.4074 83.0408 82.1928 83.3355C86.8054 80.3542 93.6759 67.7068 94.2649 64.4307ZM33.9689 46.312C35.6374 45.198 37.5022 45.0014 39.4979 45.1325C40.1195 45.1325 40.7411 45.198 41.3627 45.2963C41.8535 45.4274 42.3442 45.6239 42.8022 45.886C43.293 46.1482 43.7838 46.4103 44.2745 46.6397C44.9288 46.9673 45.0269 47.1639 44.6998 47.7536C43.7838 49.4246 43.293 51.2921 43.3257 53.1269C43.1621 53.0942 42.9986 53.0286 42.835 52.9631C41.4936 52.2423 39.9232 52.2095 38.4837 51.8164C38.3202 51.7836 38.1238 51.7836 37.9603 51.8164C37.7967 51.8492 37.6331 51.9147 37.5022 52.013C37.3386 52.144 37.3386 52.6027 37.4041 52.8321C37.4695 52.9303 37.535 53.0286 37.6331 53.0942C37.7312 53.1924 37.8621 53.2253 37.9603 53.258C39.0399 53.5201 40.1849 53.6512 41.2646 53.946C41.7226 54.0443 42.1806 54.2409 42.5405 54.5358C42.9331 54.7979 43.2603 55.1256 43.4566 55.5187C44.1109 56.6655 43.3257 58.0745 41.8862 58.402C41.2973 58.5003 40.7084 58.5003 40.1523 58.402C38.9417 58.14 37.6985 57.8447 36.6189 57.3207C35.343 56.6655 34.2306 55.7481 33.4127 54.6341C32.6602 53.6184 32.1041 52.4717 31.7769 51.2594C31.188 49.5556 32.2676 47.4587 33.9689 46.312ZM29.2578 55.6825C29.3559 55.0928 30.1738 54.4375 30.8281 54.3064C31.2534 54.2409 31.3843 54.503 31.5152 54.7324C32.4967 56.4361 34.0343 57.7792 35.8664 58.664C37.5677 59.5161 39.9232 60.302 42.2134 60.0073C42.3442 60.1383 42.5078 60.3348 42.6387 60.4663C43.4566 61.5471 43.1621 62.3991 41.7226 62.6939C40.185 62.9892 38.6146 62.9892 37.0769 62.6939C34.5251 62.1699 32.4312 60.8921 30.5337 59.3196C29.2904 58.3693 29.0287 57.0915 29.2578 55.6825ZM37.2078 71.6389C34.1652 71.4419 32.4967 70.0658 32.2022 67.6085C35.1466 69.0173 38.1238 70.0986 41.3954 68.7226C41.2973 70.1313 39.0726 71.7699 37.2078 71.6389ZM41.1665 67.019C39.7924 67.9038 38.3529 67.9693 36.8152 67.674C35.0813 67.3465 33.4454 66.6588 32.0386 65.7085C30.8281 64.8892 29.8794 63.8407 29.9775 62.3336C30.0429 61.9079 30.1411 61.5143 30.2392 61.0886C33.838 64.0705 38.3529 64.9547 41.7226 64.3652C42.4751 65.381 42.2461 66.3307 41.1665 67.019ZM56.8375 53.7167C56.085 55.2566 55.4634 56.8295 54.8091 58.402C53.9258 60.4336 53.0424 62.4646 52.1264 64.4962C51.7665 65.2822 51.472 66.0687 51.1121 66.888C50.7523 67.8056 50.0979 68.6243 49.2146 69.2144C48.1023 69.9348 47.0227 70.7214 45.6485 70.9506C44.5035 71.1471 43.3257 71.2781 42.1152 70.9179C42.4424 70.2957 43.064 69.8366 43.0313 69.0506C42.9331 68.2313 43.1294 67.3793 43.5874 66.6588C43.98 66.0687 43.8165 65.3155 43.5547 64.6272C43.4566 64.3652 43.3584 64.0372 43.293 63.7752C44.7325 62.6939 45.485 61.7114 43.6202 59.3851L44.8307 58.402C44.9615 58.5985 45.1578 58.795 45.3541 58.926C45.5831 59.057 45.943 59.1886 46.1393 59.0897C46.2375 58.9915 46.3356 58.8933 46.401 58.795C46.4665 58.6968 46.4992 58.533 46.4992 58.402C46.4665 57.9763 46.3356 57.5827 46.1393 57.2225C45.4523 55.9447 45.0597 54.503 45.0269 53.0614C44.9615 51.9147 45.1578 50.7352 45.5831 49.6539C46.0084 48.4744 46.6628 47.3932 47.5461 46.4431C47.906 46.0171 47.8732 45.755 47.5461 45.3618C46.9899 44.7065 46.5319 44.0185 46.1066 43.2977C44.7325 41.0042 44.5035 38.5141 44.9615 35.9913C45.0597 35.5326 45.2887 35.1067 45.5831 34.7462C46.3029 33.8288 46.9899 32.8787 47.9714 32.2234C48.364 31.9613 48.7893 31.7975 49.2474 31.6992C49.7054 31.6008 50.1634 31.6337 50.6542 31.7319C51.0794 31.8302 51.4394 32.0268 51.7338 32.3217C52.0282 32.5838 52.2245 32.9769 52.2899 33.3702C52.5517 34.3531 52.1918 35.2705 51.8646 36.2206C51.3739 37.7278 50.8504 39.2349 50.9486 40.8404C51.0467 42.5113 51.4066 44.1495 52.4208 45.5584C52.977 46.312 53.7622 46.9018 54.3838 47.5898C55.2017 48.5072 56.1178 49.3591 56.7393 50.3748C57.0668 50.899 57.2954 51.4559 57.3282 52.0785C57.2627 52.5699 57.1317 53.1924 56.8375 53.7167Z" fill="#1F194E"/>
<path d="M66.7179 19.1832C66.26 19.0194 65.7038 19.1177 65.2459 19.4781L63.4464 21.018C63.0212 21.3785 62.6282 21.7061 62.203 22.0665C61.1889 22.9183 60.1421 23.803 59.128 24.7204C58.5391 25.3101 57.9501 25.8999 57.394 26.4897C57.2957 26.588 57.1647 26.7518 57.0992 26.9156C57.0337 27.0794 57.001 27.276 57.001 27.4726C57.001 27.6691 57.0337 27.833 57.0992 28.0295C57.1975 28.1934 57.263 28.3245 57.394 28.4555C57.7209 28.7831 58.3098 28.8814 58.8005 28.7504C59.0625 28.6849 59.3239 28.5538 59.5204 28.39C59.7169 28.2262 59.9128 28.0296 60.0766 27.833C60.1748 27.7347 60.3058 27.5709 60.4363 27.4726C60.6983 27.2432 60.8942 27.0139 61.1562 26.7845C61.9088 26.0637 62.7265 25.3101 63.5119 24.5894C64.1008 24.0323 64.7552 23.5081 65.4091 22.9839C65.9652 22.5252 66.5214 22.0665 67.0776 21.575V21.5095C67.3068 21.2474 67.5033 20.9852 67.601 20.6904L67.6993 20.4938L67.6665 20.2972C67.5361 19.773 67.2086 19.347 66.7179 19.1832Z" fill="#A6E8A1"/>
<path d="M55.3655 17.4465C55.4963 16.8568 55.6272 16.3326 55.7908 15.7428C55.8889 15.3169 55.8562 14.9237 55.6272 14.6616C55.4963 14.465 55.2346 14.2356 54.7766 14.1374C54.613 14.1046 54.4167 14.1046 54.2531 14.1374C54.0896 14.1701 53.926 14.2356 53.7624 14.3668C53.5988 14.4978 53.5006 14.5961 53.3698 14.7599C53.2716 14.891 53.2062 15.022 53.1735 15.1858C52.8463 16.2015 52.4864 17.25 52.2247 18.2984C51.8321 19.7073 51.4723 21.0834 51.1451 22.4595C51.0142 23.0165 50.8834 23.5407 50.7852 24.0977C50.6216 25.1461 51.0469 25.4738 51.1124 25.5065C51.3087 25.6704 51.5704 25.8669 51.9303 25.9325C52.0938 25.9653 52.2902 25.9653 52.4537 25.9325H52.5192C52.6828 25.8997 52.8136 25.8342 52.9445 25.7359C53.1081 25.6376 53.2062 25.5065 53.3371 25.3755C53.4352 25.2444 53.5006 25.1134 53.5334 24.9496C53.7297 24.3926 53.8932 23.8028 54.0568 23.1475C54.2204 22.4595 54.3513 21.7714 54.5149 21.0834C54.6784 20.3626 54.8093 19.6745 55.0056 18.9865C55.1365 18.4623 55.2674 17.938 55.3655 17.4465Z" fill="#A6E8A1"/>
<path d="M45.9104 22.3282C45.485 21.116 44.9943 19.9037 44.4709 18.6914C44.3727 18.5276 44.34 18.331 44.2418 18.1017C43.9801 17.3809 43.6529 16.5618 42.8023 16.0048C42.7696 15.972 42.7369 15.9392 42.7042 15.9065C42.5406 15.7754 41.9844 15.3822 41.4282 15.8082C41.232 15.9392 41.1011 16.0703 41.0029 16.2669C40.9048 16.4635 40.8066 16.6601 40.7739 16.8566V16.9549V17.0532C40.8394 17.4791 40.9702 17.9379 41.1665 18.2983L41.5264 19.1501C41.8208 19.871 42.1153 20.559 42.4098 21.2798C42.5406 21.6402 42.6715 22.0334 42.835 22.361C43.0641 22.9508 43.2603 23.5078 43.5221 24.0975C43.7838 24.5562 44.0783 24.9822 44.4709 25.3426L44.5363 25.3753C44.7326 25.5064 44.9616 25.6047 45.1579 25.6374C45.3542 25.6702 45.5505 25.6702 45.7468 25.6047C45.7795 25.6047 45.8449 25.5719 45.8449 25.5719L45.9431 25.5391C46.3684 25.3098 46.5647 24.7856 46.5647 24.3596V24.2613C46.5647 24.163 46.3684 23.344 46.3684 23.344C46.1721 23.0819 46.0412 22.6886 45.9104 22.3282Z" fill="#A6E8A1"/>
<path d="M93.8725 65.8064C80.8512 60.466 62.694 53.3559 60.829 52.9955C60.4693 52.8644 59.1277 52.3402 59.0295 52.7989C58.2446 56.2064 51.3413 70.2947 51.3413 70.2947C54.6457 71.6058 58.6698 72.9819 62.0396 74.0304C62.4648 74.2596 74.8316 79.0433 83.6649 82.3849C85.1696 81.5006 92.2039 71.6386 93.8725 65.8064Z" fill="#FF596F"/>
</g>
<defs>
<clipPath id="clip0_5_5037">
<rect width="95.9893" height="94.86" fill="white" transform="translate(0.500488 0.240234)"/>
</clipPath>
</defs>
</svg>
