<svg width="97" height="96" viewBox="0 0 97 96" fill="none" xmlns="http://www.w3.org/2000/svg">
<g clip-path="url(#clip0_5_4986)">
<path d="M0.538087 43.7235V41.1352C0.570804 41.0041 0.60352 40.9058 0.60352 40.7748C0.636236 40.185 0.636236 39.628 0.701668 39.071C0.865249 37.6949 1.02883 36.3188 1.22513 34.9427C1.42143 33.37 1.74858 31.7974 2.1739 30.2574C2.73007 28.2916 3.51526 26.424 4.49675 24.6548C5.05292 23.6718 5.60909 22.6889 6.19799 21.706C7.08132 20.1333 8.06283 18.6589 9.14243 17.25C10.4184 15.6774 11.8906 14.2685 13.4937 13.0563C15.0968 11.844 16.7653 10.73 18.4665 9.61602C20.7567 8.17437 23.145 6.96214 25.6641 5.9464C26.4493 5.61878 27.2672 5.3239 28.0524 5.02902C29.0339 4.66861 30.0481 4.34098 31.0623 4.01333C32.0765 3.68569 33.0907 3.39081 34.1049 3.1287C35.2172 2.83382 36.3623 2.53894 37.4747 2.27683C38.1944 2.11301 38.8814 1.94919 39.6012 1.81813C40.4846 1.65431 41.3679 1.49049 42.2839 1.35943C43.4617 1.19561 44.6068 1.03179 45.7846 0.86797C46.8642 0.736912 47.9438 0.605855 49.0235 0.507562C50.3976 0.40927 51.7716 0.278213 53.1457 0.245449C54.1599 0.212685 55.2068 0.343741 56.2211 0.376506C57.5953 0.40927 58.9691 0.540327 60.3761 0.704148C61.8154 0.900731 63.2553 1.22838 64.629 1.65431C65.7414 1.98195 66.7882 2.37512 67.8678 2.80106C68.686 3.1287 69.5036 3.52187 70.289 3.91504C71.1394 4.37374 71.9575 4.8652 72.7757 5.38943C73.757 6.01196 74.7057 6.63448 75.6543 7.3553C76.8976 8.30542 78.1409 9.2556 79.3188 10.2713C80.3656 11.1559 81.347 12.1061 82.2956 13.0563C83.4734 14.2358 84.5858 15.4808 85.6981 16.7258C87.269 18.4296 88.7082 20.2644 89.9843 22.1974C90.7692 23.3442 91.4563 24.5565 92.0453 25.8343C92.4377 26.6862 92.8307 27.5708 93.1576 28.4227C93.55 29.4056 93.943 30.3885 94.2372 31.4042C94.7279 32.9114 95.1203 34.4513 95.4478 36.024C95.6115 36.8758 95.8075 37.7605 95.9712 38.6123C96.2005 39.8246 96.3637 41.0369 96.3964 42.2492C96.5274 45.1652 96.3637 48.1139 95.8402 50.9972C95.5461 52.832 95.1203 54.6668 94.532 56.436C93.9758 58.0416 93.3869 59.6469 92.8307 61.2522C91.816 64.0703 90.9657 66.9206 89.7223 69.6399C89.1662 70.8195 88.61 72.0317 87.9556 73.1785C87.2362 74.4563 86.4508 75.6686 85.5677 76.8482C84.0623 78.978 82.2634 80.9108 80.2346 82.5494C78.3047 84.0564 76.3742 85.5634 74.4115 87.0377C73.3641 87.8242 72.2195 88.4792 71.1066 89.1675C69.7001 89.9868 68.2281 90.7073 66.7227 91.2974C65.9706 91.5921 65.218 91.9196 64.4325 92.1816C63.3202 92.5424 62.1751 92.8371 61.0306 93.0664C60.3761 93.1974 59.7217 93.3611 59.0346 93.4921C58.2169 93.6564 57.3988 93.7219 56.5809 93.8857C54.389 94.2787 52.197 94.5079 49.9723 94.5734C47.7476 94.6717 45.4901 94.6062 43.2654 94.4424C41.5315 94.3114 39.7648 94.1149 38.0635 93.7874C35.5444 93.3284 33.0907 92.5424 30.7679 91.4284C27.6925 89.8886 24.7481 88.1845 21.869 86.2845C20.2332 85.1704 18.6956 83.8599 17.3215 82.4178C16.1437 81.2061 14.9332 80.0265 13.7881 78.8142C13.0356 78.0277 12.2832 77.2411 11.5634 76.3897C10.9418 75.6686 10.3857 74.8821 9.76405 74.1288C8.52081 72.6873 7.44122 71.1142 6.4597 69.4762C5.64181 68.1001 4.88934 66.6914 4.23502 65.2171C3.87514 64.365 3.54798 63.5457 3.22081 62.6943C3.02452 62.1697 2.82822 61.613 2.66464 61.0557C2.43563 60.2369 2.27204 59.4504 2.07575 58.6311C1.87945 57.7141 1.65044 56.8293 1.51957 55.9118C1.32327 54.5685 1.12698 53.1924 0.996114 51.8163C0.865249 50.4402 0.767101 49.0314 0.701668 47.6225C0.636236 46.4102 0.570804 45.1979 0.505371 44.0184C0.60352 43.8874 0.570804 43.8219 0.538087 43.7235Z" fill="white"/>
<path d="M42.9385 43.0683C46.57 41.4956 50.9213 41.3973 54.4546 43.1338C54.4546 42.8062 54.4546 42.4785 54.4546 42.1837C54.4219 41.2335 54.3892 40.2505 54.3238 39.3004C54.2256 38.0881 54.0293 36.8431 53.7676 35.6636C53.5713 34.7134 53.1787 33.8288 52.6225 33.0424C52.0663 32.2233 51.2484 31.568 50.3324 31.1094C49.6453 30.7817 48.8602 30.6834 48.1077 30.8145C47.6824 30.88 47.2898 30.9455 46.8972 31.0111C46.2428 31.1421 45.6213 31.437 45.0978 31.8301C44.5743 32.1578 44.149 32.5837 43.7564 33.0752C43.2984 33.7633 43.0367 34.5496 42.9385 35.3687C42.8731 35.8274 42.8077 36.3189 42.7422 36.7775C42.6768 37.0725 42.6768 37.3673 42.6441 37.6622C42.6114 38.0554 42.5786 38.4485 42.5786 38.8417C42.4805 40.3161 42.4478 41.8232 42.4478 43.2976C42.5786 43.2649 42.7422 43.1666 42.9385 43.0683Z" fill="#A6E8A1"/>
<path d="M77.6174 30.4865C77.6174 30.3227 77.8139 27.2101 76.4723 26.817C76.0144 26.6859 74.2149 26.4893 73.757 26.391C73.3318 26.3255 72.9394 26.2272 72.5464 26.1617C72.4809 26.1289 72.3832 26.1289 72.3505 26.1289C71.4013 26.0962 65.5454 23.6061 64.4003 22.9508C63.5172 22.4593 53.3749 17.6102 52.7533 17.086C52.2626 16.6601 51.7391 16.2997 51.2483 15.8737C50.9539 15.6443 50.6922 15.3822 50.4305 15.1201C50.136 15.3822 49.8416 15.6444 49.5471 15.9065C48.7946 16.5618 48.0749 17.217 47.2897 17.8723C45.8175 19.0846 44.2798 20.1986 42.6767 21.2471C41.7934 21.804 40.8446 22.361 39.9613 22.8853C38.8816 23.475 37.7693 24.0647 36.657 24.589C35.6754 25.0477 34.694 25.4736 33.6798 25.9323C31.4878 26.8825 29.2958 27.6688 27.0384 28.3896C25.468 28.8811 23.8649 29.3398 22.2945 29.7985C21.4766 30.0278 20.6587 30.2572 19.8408 30.4865C19.6445 30.5521 19.6445 30.6503 19.6445 30.8142C19.6118 32.2558 19.5791 43.9198 19.5791 43.9854C19.6118 45.1321 19.6445 46.2789 19.6445 47.4256C19.6445 48.0154 19.6772 48.6379 19.7099 49.2276C19.7427 49.8174 19.8408 50.5054 19.9063 51.128C19.9717 51.685 19.9717 52.2419 20.0371 52.799C20.1025 53.2249 20.1353 53.618 20.2007 54.0112C20.2661 54.4372 20.2989 54.7648 20.3315 55.158C20.397 55.9443 20.5279 56.7309 20.6914 57.4841C20.9532 58.4344 21.1495 59.352 21.4766 60.269C22.0001 61.8421 22.5562 63.3818 23.2106 64.8889C23.734 66.0357 24.3229 67.1497 24.9773 68.231C25.4353 69.017 25.9587 69.738 26.5149 70.4591C26.7767 70.7866 27.0711 71.1141 27.3655 71.4088C27.66 71.7041 27.9544 71.9661 28.2816 72.2281C28.6742 72.5556 29.0668 72.8509 29.4594 73.1456C30.3754 73.8334 31.2915 74.4889 32.2075 75.1112C33.2872 75.8322 34.4323 76.4872 35.5773 77.1427C37.115 78.0275 38.6526 78.8463 40.1903 79.7311C41.4335 80.4194 42.7422 81.0416 44.0508 81.5662C45.0323 81.9919 46.0465 82.2866 46.9953 82.8439C47.0607 82.9094 47.1261 82.9094 47.1915 82.9749H47.3878C47.486 82.8767 48.3366 82.7124 48.631 82.6141C50.0379 82.1556 51.4119 81.6972 52.786 81.2054C53.1459 81.0744 53.473 80.8779 53.8002 80.7469C55.0107 80.1896 56.1558 79.6656 57.3665 79.1416C57.5625 79.0761 62.5025 75.996 63.2224 75.4392C63.9751 74.8819 64.6623 74.2269 65.1857 73.4404C65.5126 73.0146 65.8723 72.6211 66.298 72.2936C66.887 71.7369 67.4753 71.1468 68.0315 70.5901C68.9152 69.7053 70.1258 69.017 70.8124 68.0017C71.5323 66.855 73.561 62.5953 73.6915 62.1368C74.019 60.8918 74.7061 60.3672 75.0003 59.1222C75.1968 58.2379 75.8834 55.6167 76.0472 54.6993C76.2437 53.6181 77.2578 43.0352 77.2578 42.6093C77.2905 41.954 77.5847 40.7417 77.5847 40.0537C77.6174 37.8257 77.5847 33.763 77.5847 33.763C77.4543 33.6319 77.6174 30.8469 77.6174 30.4865ZM63.2552 58.2379C62.9932 59.1882 62.6335 60.0725 62.1756 60.9245C61.6849 61.8748 61.096 62.7263 60.4088 63.5456C59.8854 64.1684 59.3292 64.7579 58.7076 65.2491C57.9554 65.9047 57.17 66.4941 56.3848 67.0842C55.6323 67.6409 54.8144 68.1655 53.9965 68.5585C53.0477 69.017 52.0335 69.345 51.0193 69.476C49.9397 69.5743 48.8274 69.6398 47.7477 69.607C46.8316 69.607 45.9156 69.476 45.0323 69.2795C44.149 69.083 43.2983 68.8205 42.4477 68.4602C41.6298 68.1327 40.8446 67.6737 40.1576 67.1169C39.4051 66.4614 38.7181 65.7737 38.1291 64.9871C37.6712 64.4631 37.3113 63.9058 37.0168 63.3163C36.5915 62.3988 36.2316 61.4485 35.9372 60.466C35.839 60.007 35.3156 57.8444 35.2501 57.3531C34.923 54.3389 35.381 50.6037 36.9187 47.9499C37.115 47.6222 37.344 47.2946 37.5403 46.9997C37.573 46.1806 37.6057 45.3615 37.6057 44.5424C37.6057 42.9042 37.573 41.266 37.6057 39.6278C37.6057 38.8742 37.7039 38.1534 37.7693 37.3998C37.802 37.1049 37.8347 36.8428 37.8347 36.5479C37.9001 35.5977 38.0638 34.6476 38.2927 33.7302C38.7508 32.1575 39.4705 30.6831 40.4847 29.3726C41.1718 28.5207 42.0224 27.8327 42.9712 27.3412C43.56 27.0135 44.1817 26.6859 44.836 26.391C45.9483 25.9323 47.1261 25.9323 48.3039 26.0306C49.0891 26.0962 49.8743 26.2272 50.6268 26.4238C51.4447 26.6204 52.2299 26.9152 52.9496 27.3739C53.1459 27.505 53.3422 27.6688 53.5385 27.8327C53.6367 27.8982 53.7348 27.8982 53.8002 27.9637C54.2255 28.5207 54.6181 29.0449 55.0107 29.6019C55.0434 29.6347 55.0434 29.6675 55.0434 29.7002C55.0762 29.7657 55.1089 29.7657 55.1089 29.7985L55.1416 29.864C55.207 29.9296 55.2724 29.9623 55.3379 30.0278C56.3521 31.4695 57.1045 33.0749 57.5625 34.7787C57.759 35.6305 57.9876 36.4824 58.1514 37.3342C58.2169 37.6619 58.2169 37.9568 58.2169 38.2844C58.2824 39.2674 58.3151 40.2503 58.3479 41.2332C58.3806 42.511 58.4134 43.756 58.4134 45.0338V45.0994C58.6421 45.1977 61.3902 47.7533 62.3066 49.9812C62.7645 51.0625 63.0914 52.2092 63.2879 53.3887C63.3534 53.8146 63.3862 54.2078 63.4189 54.601C63.4517 55.0597 63.4844 55.5184 63.4844 55.9443C63.5821 56.7637 63.4517 57.5169 63.2552 58.2379Z" fill="#A6E8A1"/>
<path d="M37.9331 44.5423C37.9985 45.3614 38.751 45.2631 40.3868 44.3457C44.3128 41.0693 41.7282 39.2345 43.7239 33.0748C50.7251 25.834 55.3381 36.0564 54.1603 42.6092C55.7961 43.756 57.2685 44.87 57.9229 44.3457C59.1335 43.3628 57.4649 33.5008 56.4178 30.7486C51.3468 25.408 46.4066 25.7029 42.1862 27.9309C38.8164 29.7657 37.2788 38.0878 37.9331 44.5423Z" fill="#5DD4F6"/>
<path opacity="0.9801" d="M35.1846 54.2734V52.9628C35.2173 52.9301 35.25 52.8973 35.25 52.8645C35.3154 52.1109 35.2827 51.2919 35.5117 50.571C36.4605 47.5895 42.1204 41.6592 46.1118 41.1022C47.2568 40.9056 48.4346 40.9056 49.5797 41.0367C50.234 41.1021 50.8883 41.266 51.5427 41.3971C53.9964 41.8885 56.1883 42.9698 57.9222 44.7718C61.2592 48.212 61.4557 56.4686 59.8854 59.6794C59.4275 60.2695 59.0018 60.9244 58.5438 61.5472C58.3474 61.8092 58.1842 62.0712 57.9549 62.2677C57.3988 62.7268 56.7772 63.1853 56.2211 63.611C55.6649 64.0701 50.005 66.5929 48.8272 66.5929C48.7617 66.5929 48.7291 66.6256 48.6636 66.6584H47.9766C47.9439 66.6256 47.9112 66.5929 47.8784 66.5929C47.4204 66.5274 46.9951 66.5274 46.5371 66.4619C45.5883 66.3964 44.6723 66.1666 43.7889 65.8063C42.2839 65.1841 40.8117 64.3976 39.4376 63.48C39.0778 63.2508 38.7506 62.956 38.4889 62.6613C36.9185 60.9572 36.0351 58.8601 35.4463 56.6324C35.25 55.9444 35.1846 55.2563 35.1846 54.5355C35.25 54.47 35.2173 54.3717 35.1846 54.2734ZM46.1445 54.9287C46.3735 54.7321 46.6025 54.601 46.8315 54.4045C48.1074 53.4543 48.3691 51.685 47.4204 50.4072C47.4204 50.3744 47.3877 50.3744 47.355 50.3417C46.897 49.6536 46.2427 49.1621 45.4575 48.9983C44.4105 48.769 43.3309 48.7035 42.2839 48.8345C41.9568 48.8673 41.5969 48.9656 41.3352 49.1621C41.1716 49.2277 41.1062 49.3915 41.1062 49.5881V50.2434C41.1062 51.128 41.0408 52.0454 41.1062 52.9301C41.1716 54.4372 41.2698 55.9444 41.3025 57.4186C41.3025 57.5823 41.3352 57.7466 41.3679 57.8776C41.4334 58.0086 41.4988 58.1069 41.5969 58.1724C41.8914 58.2706 42.1858 58.3689 42.4803 58.3689C43.0364 58.4344 43.5599 58.4344 44.1161 58.4344H47.0278C47.2896 58.4344 47.5513 58.3689 47.813 58.3034C48.042 58.2379 48.1729 58.0086 48.1402 57.7794C48.1402 57.7466 48.1074 57.7139 48.1074 57.7139C48.0747 57.6151 48.042 57.5168 47.9439 57.3858C47.7803 57.1238 47.6167 56.8946 47.4204 56.6652C47.0278 56.0754 46.6025 55.5512 46.1445 54.9287ZM54.4871 53.3888C54.5852 53.3232 54.6834 53.2577 54.7488 53.1922C55.6322 52.6351 56.0247 51.6195 55.7303 50.6038C55.4359 49.3915 54.6507 48.769 53.4075 48.769C52.9167 48.769 52.426 48.769 51.9353 48.8018C51.2482 48.8673 50.5939 48.9656 49.9068 49.0639C49.6451 49.1294 49.4488 49.3588 49.4161 49.6209V49.9485C49.3834 50.997 49.4815 52.0454 49.5142 53.0939C49.5797 54.4045 49.6124 55.6822 49.6778 56.9601C49.6778 57.1893 49.7433 57.4186 49.776 57.6478C49.8414 57.9431 50.1031 58.1724 50.3976 58.2051C50.6266 58.2706 50.8556 58.2706 51.0846 58.2706C52.0661 58.2051 53.0476 58.1724 54.0291 58.0741C54.5852 58.0086 55.1414 57.8449 55.5995 57.5168C56.1883 57.1238 56.5155 56.4686 56.4828 55.7805C56.4173 55.2563 56.2865 54.7649 55.9921 54.3389C55.7957 54.0113 55.534 53.7819 55.2396 53.6509C54.9778 53.5853 54.7488 53.487 54.4871 53.3888Z" fill="#FF596F"/>
<path d="M78.0428 27.8985C77.9773 27.4071 77.9124 26.9484 77.7486 26.4569L77.7159 26.3586L77.0942 26.2603C76.6363 26.1948 76.2438 26.1293 75.8181 26.0637C74.0513 25.7689 72.3506 25.3102 70.6494 24.7204C68.6861 24.0324 66.7561 23.2132 64.8911 22.4597C62.6664 21.5751 60.4745 20.5594 58.3808 19.4454C55.2725 17.7089 52.2626 15.6775 49.5472 13.3513L49.3509 13.1546C49.0564 12.9253 48.7947 12.6959 48.5002 12.4666C48.3366 12.3683 48.1731 12.27 48.0095 12.27H47.9441H47.8787C47.3225 12.5977 46.799 12.9908 46.3083 13.4495C45.0324 14.7273 43.6582 15.9396 42.2187 17.0208C41.8916 17.2502 41.6299 17.4795 41.3027 17.7089C40.5829 18.2658 39.8305 18.8556 39.0125 19.3143C37.2459 20.3628 35.4138 21.3129 33.5162 22.1648C31.1934 23.2133 28.7396 24.0979 26.3841 24.9498C25.9261 25.1136 25.5335 25.2774 25.0755 25.4085C23.636 25.9327 22.0983 26.3914 20.5606 26.5552C20.3644 26.5879 20.168 26.6208 20.0045 26.719C19.6773 26.8829 19.5137 27.2105 19.5792 27.5381C19.6445 27.8658 19.939 28.0951 20.2662 28.0951H20.4952C21.6075 28.0296 22.7199 27.8002 23.7668 27.5054C25.01 27.145 26.2205 26.6863 27.431 26.2603C27.9872 26.0637 28.5107 25.8671 29.0669 25.6706C32.4366 24.4583 35.7409 22.9839 38.8817 21.2146C40.3539 20.3628 41.8261 19.3471 43.1348 18.2658C44.2144 17.4468 45.2613 16.5621 46.2428 15.612C46.6681 15.1533 47.0935 14.7601 47.5188 14.3342C47.7151 14.1703 47.8459 14.0065 48.0095 13.8427L48.0422 13.8099C48.2385 14.0065 48.4675 14.1703 48.6966 14.3669C49.2527 14.8584 49.8089 15.3499 50.3978 15.8085C52.7533 17.7744 55.3706 19.4781 58.0533 20.887C62.0448 22.9839 66.2 24.6221 69.7657 25.9654C71.598 26.6535 73.5279 27.1777 75.4584 27.5054C75.7199 27.5709 76.0146 27.5709 76.276 27.6364C76.3743 27.6692 76.4725 27.6692 76.6035 27.7019C76.6363 27.9313 76.6363 28.1606 76.669 28.39C76.7345 28.9142 76.7345 29.4712 76.7673 29.9955C76.8977 32.6493 76.8977 35.4671 76.8 38.6124C76.7345 40.48 76.6035 42.3475 76.4725 44.2151C76.407 44.8376 76.407 45.4929 76.3415 46.1154C76.2111 48.0812 76.0146 50.0471 75.7199 51.8819C75.3929 54.1426 74.9023 56.4362 74.2151 58.6313C73.6589 60.5319 72.8741 62.3992 71.9904 64.1688C71.4997 65.1185 70.878 66.0033 70.2891 66.8553C70.0932 67.1173 69.9294 67.3466 69.7657 67.6086C68.3264 69.6402 66.6579 71.4747 64.7929 73.0805C61.3248 76.0618 57.4316 78.4209 53.2114 80.1245C51.9355 80.649 50.5941 81.0747 49.2527 81.4677L48.9256 81.5338C48.5984 81.5993 48.2385 81.7303 47.9441 81.7958C47.6496 81.8613 47.4206 82.0905 47.3879 82.3525C47.3552 82.549 47.3879 82.8443 47.5515 83.0408C47.6496 83.1718 47.7805 83.2373 47.9441 83.2373C48.1076 83.2373 51.3793 82.3853 52.2953 82.0905C54.978 81.1402 57.5626 79.928 59.9838 78.4864C64.9566 75.6034 69.275 71.5074 72.4156 66.6588C73.6262 64.791 74.5753 62.7594 75.2619 60.6629C76.0801 58.3693 76.7018 56.0102 77.0942 53.6184C77.4211 51.9147 77.6176 50.1782 77.7814 48.5727C77.8796 47.557 77.9773 46.5086 78.0428 45.5257L78.1083 44.7065C78.1738 43.4943 78.3048 42.282 78.3375 41.1025C78.403 39.3987 78.4358 37.6295 78.4358 35.9257V35.5981C78.3703 33.0097 78.3703 30.4214 78.0428 27.8985Z" fill="#1D184E"/>
<path d="M50.6921 66.8224C54.1928 66.2323 57.366 64.2013 59.3948 61.2849C61.4885 58.4674 62.3716 54.8961 61.7827 51.4559C61.4557 49.2607 60.5726 47.2293 59.1655 45.4928C59.0673 45.3617 59.0018 45.1979 59.0018 45.0341C59.0018 44.3133 58.9696 43.5925 58.9696 42.9044L58.9369 41.987H58.9041C58.9041 41.7577 58.9041 41.5283 58.9041 41.299C58.9041 40.6109 58.8714 39.8901 58.8386 39.1693C58.7731 38.3502 58.6749 37.4983 58.5766 36.712L58.5111 36.1223C58.3479 34.7462 58.0204 33.4028 57.497 32.125C57.0718 31.1093 55.8286 29.5039 55.436 28.9469C55.3706 28.8813 55.3378 28.8158 55.3378 28.8158C55.1743 28.4882 52.7205 26.293 50.7249 25.9653C49.3835 25.5394 47.9113 25.4083 46.0792 25.5722C45.7193 25.6049 45.3267 25.6704 44.9668 25.7687C43.5928 26.1947 42.3168 26.9483 41.2699 27.964C41.1717 28.0623 41.0736 28.1605 40.9427 28.2588C40.4847 28.5209 40.0921 28.9141 39.7977 29.34C38.6853 30.8799 37.9656 32.682 37.7693 34.5823C37.6384 35.5325 37.5075 36.5482 37.4421 37.5311C37.344 39.1693 37.2458 40.6109 37.2131 41.9215C37.1804 42.7406 37.2131 43.6252 37.2131 44.4116V45.6566C37.2131 45.8532 37.1476 46.1153 37.0168 46.2792C34.8575 49.2935 34.0396 52.6682 34.6939 56.2067C35.152 59.0574 36.5915 61.7113 38.7835 63.6113C41.4334 65.9049 44.4433 67.0844 47.8131 67.0844C48.7619 67.0844 49.7107 67.0189 50.6921 66.8224ZM43.2002 40.6764C43.2002 40.5126 43.2328 40.3488 43.2328 40.2178C43.2656 39.9229 43.2656 39.6608 43.2983 39.3659C43.331 38.6451 43.3637 37.8588 43.4292 37.1052C43.4946 36.2533 43.5273 35.5325 43.6582 34.7789C43.8218 33.7304 44.4433 32.9114 45.5557 32.1905C46.0137 31.8629 46.5045 31.6991 47.0279 31.6336H47.3224C47.5514 31.6336 47.7804 31.6335 48.0094 31.6663C48.4347 31.6991 48.8273 31.7318 49.2526 31.8629C50.3977 32.0922 51.3792 32.7803 52.0008 33.7304C52.0335 33.796 52.0662 33.8287 52.0989 33.8943C52.5897 34.4185 52.7533 35.1065 52.9169 35.7946L52.9823 35.9912C53.2113 37.1379 53.3422 38.2847 53.3422 39.4642C53.3749 39.9229 53.3748 40.4143 53.4076 40.9058V41.3645C52.4588 40.9385 51.4446 40.6764 50.3977 40.5454C49.4816 40.4143 48.5656 40.3816 47.6495 40.4799C46.21 40.5782 44.8032 40.9385 43.4292 41.4956C43.3637 41.5283 43.2655 41.5611 43.2002 41.5611C43.1674 41.2662 43.2002 40.9714 43.2002 40.6764ZM55.2397 42.3147L55.1743 42.2819C55.0761 42.2491 54.978 42.2164 54.8798 42.0853C54.8144 41.987 54.7817 41.856 54.8144 41.7577V41.7249C54.8144 40.316 54.749 38.8744 54.5526 37.4983C54.5199 37.3017 54.5199 37.1052 54.4872 36.9086C54.4545 36.4827 54.4218 36.0895 54.3236 35.6635C54.0619 34.3529 53.473 33.1407 52.557 32.1905C51.6409 31.1749 50.3977 30.5523 49.0563 30.3885C48.5983 30.323 48.173 30.2902 47.5841 30.2247C46.9952 30.1592 46.3736 30.2574 45.8501 30.4868C44.6723 30.9455 43.6909 31.6991 42.9711 32.7148C42.5458 33.2718 42.2841 33.9925 42.1859 34.6806C42.0551 35.4014 41.9896 36.155 41.9569 36.9086C41.8915 38.3502 41.826 39.8246 41.7933 41.2335L41.7606 42.1836C41.7606 42.2491 41.6952 42.3474 41.6298 42.3802C40.8773 42.7734 40.1903 43.2321 39.5359 43.789C39.3396 43.9856 39.1106 44.1494 38.9143 44.3461C38.8162 44.4444 38.718 44.5427 38.5871 44.6409C38.5871 44.5754 38.5871 44.5754 38.6199 44.5099V44.4444C38.6199 44.1167 38.6199 43.8546 38.6199 43.5269C38.6199 42.8717 38.6199 42.1836 38.6526 41.5283C38.718 40.316 38.7835 39.202 38.8816 38.0881C38.9797 36.8103 39.1433 35.5652 39.2742 34.6151C39.3069 34.4513 39.3069 34.3202 39.3396 34.1564C39.4051 33.5339 39.5032 32.8786 39.6995 32.2888C40.0921 31.2076 40.7464 30.2247 41.5316 29.4384C42.0878 28.8486 42.7748 28.3244 43.4946 27.9312C44.5742 27.3414 45.7847 26.981 46.9952 26.9483C47.2243 26.9483 47.4533 26.9155 47.6822 26.9155C48.5329 26.9155 49.3835 27.0138 50.2014 27.2104C51.8372 27.6363 53.1131 28.2916 54.0619 29.2745C54.1274 29.3401 54.16 29.3728 54.2582 29.4711C55.3051 30.2902 55.8286 31.4042 56.352 32.5837C56.8428 33.8287 57.1701 35.1065 57.3005 36.4499L57.366 36.8758C57.4315 37.4983 57.5298 38.1536 57.5953 38.8089C57.6608 39.3332 57.6608 39.8901 57.6608 40.5454C57.6935 41.6594 57.6935 42.8062 57.6935 43.9201C57.1046 43.4942 55.5014 42.4457 55.2397 42.3147ZM41.6625 43.9856C43.1674 42.9372 44.9668 42.3147 47.1588 42.0525C47.486 41.987 47.8458 41.987 48.1403 41.987C48.2384 41.987 48.3693 41.987 48.4674 41.9543C52.0662 42.0198 54.9125 43.1665 57.1701 45.4928C58.8386 47.1638 59.951 49.3918 60.2779 51.7508C60.8341 55.748 59.6235 59.2212 56.6792 62.137C54.8144 63.9721 52.4588 65.1183 49.9069 65.5119C49.2199 65.6429 48.5656 65.7084 47.8786 65.7084C43.3964 65.7084 39.1761 63.12 37.2131 58.9586C36.2643 57.0258 35.9372 54.8634 36.2316 52.7337C36.6896 49.0968 38.5218 46.1481 41.6625 43.9856Z" fill="#1D184E"/>
</g>
<defs>
<clipPath id="clip0_5_4986">
<rect width="95.9893" height="94.86" fill="white" transform="translate(0.505371 0.240234)"/>
</clipPath>
</defs>
</svg>
