<svg width="24" height="24" viewBox="0 0 24 24" fill="none" xmlns="http://www.w3.org/2000/svg">
<path d="M7 22C8.10457 22 9 21.1046 9 20C9 18.8954 8.10457 18 7 18C5.89543 18 5 18.8954 5 20C5 21.1046 5.89543 22 7 22Z" fill="#19124F"/>
<path d="M17 22C18.1046 22 19 21.1046 19 20C19 18.8954 18.1046 18 17 18C15.8954 18 15 18.8954 15 20C15 21.1046 15.8954 22 17 22Z" fill="#19124F"/>
<path d="M18 17H6C5.76745 17.0052 5.54038 16.9291 5.35786 16.7849C5.17534 16.6407 5.04879 16.4374 5 16.21L2.19 3H1C0.734784 3 0.48043 2.89465 0.292893 2.70711C0.105357 2.51957 0 2.26522 0 2C0 1.73479 0.105357 1.48043 0.292893 1.2929C0.48043 1.10536 0.734784 1 1 1H3C3.23255 0.994829 3.45962 1.07088 3.64214 1.21507C3.82466 1.35927 3.95121 1.56257 4 1.79L6.81 15H17.18L18.78 7H5C4.73478 7 4.48043 6.89465 4.29289 6.70711C4.10536 6.51957 4 6.26522 4 6C4 5.45 3.45 5 4 5H20C20.1477 5.00098 20.2934 5.03467 20.4265 5.09864C20.5596 5.16262 20.6769 5.25529 20.77 5.37C20.8678 5.48247 20.9391 5.61537 20.9789 5.75897C21.0187 5.90258 21.0259 6.05326 21 6.2L19 16.2C18.9532 16.4293 18.8276 16.6349 18.6449 16.7811C18.4621 16.9273 18.2339 17.0047 18 17Z" fill="#19124F"/>
</svg>
