<svg width="24" height="24" viewBox="0 0 24 24" fill="none" xmlns="http://www.w3.org/2000/svg">
<g clip-path="url(#clip0_5_7295)">
<path d="M12 22.0001C11.6661 21.9973 11.3439 21.8769 11.09 21.6601L11 21.5901L2.13 12.4201C0.520001 10.7701 5.09773e-07 9.7201 5.09773e-07 8.0901C-0.000485777 6.89357 0.346951 5.72271 1 4.7201C1.63637 3.72015 2.56008 2.93587 3.65 2.4701C4.73641 2.00054 5.94142 1.87829 7.1 2.1201C8.24462 2.36983 9.28898 2.95467 10.1 3.8001L12 5.7201L13.86 3.8001C14.671 2.95467 15.7154 2.36983 16.86 2.1201C18.0186 1.87895 19.2234 2.00118 20.31 2.4701C21.4147 2.92902 22.3531 3.71394 23 4.7201C23.653 5.72271 24.0005 6.89357 24 8.0901C24 9.6901 23.46 10.7901 21.85 12.4501L12.91 21.6601C12.6556 21.8762 12.3337 21.9964 12 22.0001ZM5.93 4.0001C5.41707 3.99759 4.90937 4.10322 4.44 4.3101C3.71183 4.61951 3.09465 5.14254 2.67 5.8101C2.22866 6.48829 1.99572 7.28096 2 8.0901C2 9.0901 2.24 9.6701 3.56 11.0201L12 19.7401L20.42 11.0601C21.77 9.6601 22 9.0001 22 8.0901C22.0027 7.27805 21.77 6.48261 21.33 5.8001C20.8997 5.13992 20.2839 4.62157 19.56 4.3101C18.8524 4.00047 18.0656 3.92004 17.31 4.0801C16.5452 4.23591 15.8468 4.62347 15.31 5.1901L12 8.5901L8.7 5.1901C8.16316 4.62347 7.46485 4.23591 6.7 4.0801C6.4466 4.02809 6.18868 4.0013 5.93 4.0001Z" fill="#19124F"/>
</g>
<defs>
<clipPath id="clip0_5_7295">
<rect width="24" height="24" fill="white"/>
</clipPath>
</defs>
</svg>
