<svg width="97" height="96" viewBox="0 0 97 96" fill="none" xmlns="http://www.w3.org/2000/svg">
<g clip-path="url(#clip0_5_4945)">
<path d="M0.538819 43.9803V41.3766C0.571535 41.2448 0.604251 41.1459 0.604251 41.0141C0.636966 40.4208 0.636966 39.8605 0.702398 39.3002C0.865977 37.916 1.02956 36.5318 1.22585 35.1476C1.42215 33.5656 1.7493 31.9837 2.17461 30.4346C2.73078 28.4572 3.51595 26.5786 4.49743 24.7989C5.05359 23.8102 5.60976 22.8214 6.19864 21.8327C7.08196 20.2508 8.06342 18.7677 9.14303 17.3505C10.419 15.7685 11.8912 14.3513 13.4942 13.1319C15.0973 11.9125 16.7658 10.7919 18.467 9.67136C20.7571 8.22121 23.1454 7.00182 25.6645 5.98009C26.4497 5.65053 27.2675 5.35391 28.0528 5.05729C29.0342 4.69476 30.0484 4.36518 31.0626 4.0356C32.0768 3.70603 33.091 3.40941 34.1052 3.14575C35.2175 2.84913 36.3626 2.55251 37.4749 2.28885C38.1946 2.12406 38.8816 1.95928 39.6014 1.82744C40.4848 1.66266 41.3681 1.49787 42.2841 1.36604C43.4619 1.20125 44.6069 1.03646 45.7847 0.871676C46.8643 0.739844 47.9439 0.608014 49.0235 0.50914C50.3976 0.410268 51.7717 0.278437 53.1457 0.24548C54.1599 0.212522 55.2068 0.344352 56.221 0.37731C57.5951 0.410268 58.969 0.542098 60.3759 0.706886C61.8152 0.90463 63.255 1.23421 64.6289 1.66266C65.741 1.99224 66.7884 2.38772 67.8681 2.81618C68.686 3.14575 69.5039 3.54124 70.2888 3.93673C71.1396 4.39814 71.9575 4.8925 72.7754 5.41983C73.7569 6.04603 74.7054 6.67222 75.6539 7.3973C76.8972 8.35304 78.1405 9.30883 79.3185 10.3305C80.3653 11.2204 81.3467 12.1761 82.2952 13.1319C83.4732 14.3184 84.5853 15.5708 85.698 16.8232C87.2684 18.537 88.7077 20.3826 89.9834 22.3271C90.7689 23.4806 91.4561 24.7 92.0446 25.9854C92.4376 26.8423 92.8301 27.7322 93.1572 28.5891C93.5497 29.5777 93.9422 30.5665 94.2369 31.5882C94.7277 33.1042 95.1201 34.6532 95.4473 36.2352C95.6109 37.0921 95.8068 37.982 95.9704 38.8389C96.1999 40.0583 96.3634 41.2777 96.3958 42.4972C96.527 45.4304 96.3634 48.3965 95.8398 51.2969C95.5456 53.1424 95.1201 54.9881 94.5312 56.7678C93.9751 58.3828 93.3861 59.9976 92.8301 61.6123C91.8157 64.4471 90.9654 67.3142 89.7221 70.0496C89.1655 71.2361 88.6094 72.4556 87.9551 73.6091C87.2355 74.8945 86.4506 76.1139 85.5668 77.3004C84.0622 79.4428 82.2629 81.387 80.2346 83.0353C78.3041 84.5512 76.3741 86.0671 74.4112 87.5501C73.3638 88.3413 72.2188 89.0001 71.1067 89.6925C69.6998 90.5166 68.2276 91.2414 66.723 91.8349C65.9705 92.1314 65.2179 92.4608 64.4324 92.7244C63.3203 93.0873 62.1753 93.3838 61.0302 93.6144C60.3759 93.7461 59.7216 93.9109 59.0343 94.0426C58.2165 94.2079 57.3986 94.2738 56.5809 94.4385C54.3889 94.8338 52.197 95.0644 49.9723 95.1303C47.7476 95.2291 45.4903 95.1633 43.2656 94.9985C41.5316 94.8668 39.765 94.6691 38.0638 94.3397C35.5447 93.8779 33.091 93.0873 30.7682 91.9667C27.6929 90.4178 24.7485 88.7037 21.8695 86.7924C20.2337 85.6718 18.6961 84.3535 17.322 82.9029C16.1442 81.684 14.9337 80.4975 13.7887 79.2781C13.0362 78.4869 12.2838 77.6957 11.564 76.8392C10.9424 76.1139 10.3863 75.3227 9.76468 74.565C8.52144 73.115 7.44183 71.5326 6.46037 69.8849C5.64248 68.5007 4.89001 67.0836 4.2357 65.6007C3.87583 64.7436 3.54867 63.9195 3.22151 63.0629C3.02521 62.5353 2.82892 61.9753 2.66534 61.4147C2.43633 60.5911 2.27275 59.7999 2.07646 58.9758C1.88016 58.0534 1.65115 57.1634 1.52029 56.2405C1.32399 54.8892 1.1277 53.505 0.996839 52.1208C0.865977 50.7366 0.767829 49.3194 0.702398 47.9022C0.636966 46.6828 0.571535 45.4633 0.506104 44.2768C0.604251 44.145 0.571535 44.0791 0.538819 43.9803Z" fill="white"/>
<path d="M60.7037 51.725C59.9835 51.0329 57.0066 46.4188 56.3196 45.3971C55.698 44.4743 54.6184 43.123 54.1277 41.2774C50.6271 45.6937 44.3129 52.5489 40.6488 55.9106C39.3728 56.8004 38.1951 57.4927 37.0501 56.1413C33.942 52.6148 46.2431 35.8723 49.482 31.6538C54.0622 26.6772 61.0632 25.4248 67.0832 22.887C58.6096 15.6034 46.7339 14.5488 36.363 17.9104C35.676 23.0518 28.9366 36.7293 26.9409 35.0484C25.0761 33.1039 22.8187 31.6538 20.9212 29.7752C20.1687 30.7639 19.7107 31.9175 19.1218 33.038C27.1699 37.5532 25.2724 64.7764 22.1971 64.4135C24.0946 67.1489 26.4174 69.5877 29.1001 71.5984C29.1001 71.5984 65.2509 73.1143 65.5128 73.4114C73.1356 68.6324 78.1411 60.0634 79.0897 51.1318C74.8696 49.2531 61.358 51.6261 60.7037 51.725Z" fill="#5DD4F6"/>
<path d="M79.1872 46.0895C79.1548 45.3974 79.0895 44.7053 79.0236 44.0461C78.9259 43.2881 78.8276 42.5301 78.6641 41.805C78.4022 40.6845 78.1404 39.5639 77.8132 38.4763C77.2901 36.7295 76.6029 35.0158 75.7197 33.4008C75.2289 32.478 74.7053 31.5552 74.1492 30.6983C73.4949 29.6766 72.8077 28.6879 72.0227 27.7651C71.5973 27.2707 71.2048 26.7434 70.7465 26.249C70.6812 26.1831 70.5829 26.0842 70.4852 25.9854C70.354 26.1502 70.2234 26.2491 70.0269 26.3479C68.0969 27.2048 66.4611 28.5231 64.7271 29.7096C62.8948 30.929 60.8665 31.8518 58.9689 33.0054L58.9366 33.0383C59.1001 33.4338 59.3614 33.8293 59.6232 34.1589C60.2452 34.8839 61.2266 35.1476 62.0769 35.4771C64.3017 36.3011 66.3958 37.2239 68.1622 38.8718C68.424 39.1025 68.5547 39.4321 68.5547 39.7617C69.3402 41.1129 69.1107 42.5301 67.9986 44.1121C66.6571 46.0566 65.0872 48.6602 62.9277 49.7478C60.5064 51.0002 58.8053 48.6932 57.4644 46.9794C57.0715 46.485 56.679 45.9577 56.3518 45.4304C56.4172 45.76 56.4172 46.0566 56.4172 46.3861C56.45 47.6056 56.4172 48.825 56.4172 50.0115C56.3845 50.3081 56.4827 50.6377 56.6135 50.9013C56.908 51.3628 57.2678 51.7912 57.6603 52.1208C57.9551 52.3844 58.3146 52.5821 58.6747 52.681C59.329 52.8459 59.9833 52.8788 60.67 52.7799C61.5538 52.681 62.4699 52.5163 63.3531 52.3844C64.0074 52.2855 64.6288 52.1537 65.2831 52.0548C65.9374 51.956 66.6247 51.8241 67.3114 51.6923C67.7697 51.6264 68.2604 51.5605 68.7182 51.4946C69.5691 51.3628 70.3869 51.2309 71.2372 51.0991C71.9245 51.0002 72.5788 50.9343 73.266 50.9343C73.9527 50.9013 74.607 50.8684 75.2943 50.8684C75.7521 50.9013 76.1775 50.9343 76.6358 51.0332C76.9954 51.0991 77.3878 51.1979 77.7479 51.2309C78.2057 51.2968 78.6641 51.2968 79.1219 51.2968C79.1548 51.2309 79.1872 51.132 79.1872 51.0332C79.2531 50.5388 79.3184 50.0115 79.3184 49.4842C79.2201 48.3636 79.1872 47.2431 79.1872 46.0895Z" fill="#A6E8A1"/>
<path d="M19.1869 33.0049C19.9393 33.3345 20.5936 33.7958 21.1825 34.3891C21.6405 34.8505 22.164 35.3449 22.622 35.8722C23.1782 36.4654 23.6362 37.1575 24.0288 37.8826C24.4868 38.6736 24.9121 39.4975 25.272 40.3544C25.4356 40.7829 25.5992 41.2443 25.6646 41.6728C25.8282 42.3319 25.9263 42.991 26.0572 43.6502C26.2207 44.4083 26.3189 45.1663 26.5152 45.8913C26.7115 46.6164 26.9732 47.3415 27.2022 48.0665C27.3331 48.4291 27.4966 48.8246 27.6275 49.22C27.8892 49.9122 28.2491 50.5384 28.7071 51.1316C29.1651 51.6919 29.6886 52.2192 30.2775 52.6477C30.8664 53.109 31.488 53.6034 32.0769 54.0648C32.9275 54.6581 33.7781 55.2513 34.6287 55.8116C35.6756 56.5036 36.657 57.2614 37.6058 58.1185C37.9984 58.5138 38.4237 58.8768 38.8163 59.2391C39.0126 59.4368 39.2089 59.6344 39.3725 59.8656C39.5033 60.0303 39.5688 60.228 39.6015 60.4256C39.6669 60.9527 39.6015 61.5133 39.4706 62.0404C39.4379 62.1063 39.4052 62.1392 39.3725 62.2051C38.6854 63.0292 37.7694 63.5898 36.7225 63.8204C36.0354 63.9851 35.3484 64.084 34.6614 64.1828C33.9089 64.2816 33.1565 64.3475 32.4367 64.4463C31.717 64.5452 30.9645 64.5452 30.212 64.6111C28.5108 64.7758 26.8423 64.7428 25.1411 64.7099C24.4541 64.7099 23.8325 64.6111 23.1782 64.5452C22.8837 64.5122 22.5566 64.4793 22.2621 64.4793C22.164 64.3475 22.0658 64.2487 21.9677 64.1169C20.8881 62.568 19.972 60.9198 19.2196 59.2062C18.8597 58.415 18.5325 57.5585 18.2381 56.7344C17.8128 55.6468 17.4856 54.5262 17.2566 53.4057C17.0603 52.5158 16.8967 51.56 16.7332 50.6702C16.635 49.9781 16.5696 49.253 16.4714 48.5609C16.3406 47.3744 16.3079 46.188 16.3733 44.9685C16.3733 44.3753 16.4387 43.7491 16.5042 43.1888C16.6023 42.3978 16.7332 41.6068 16.864 40.8159C17.1257 39.2668 17.4856 37.7178 18.0091 36.2677C18.3362 35.246 18.7288 34.2243 19.2196 33.2685C19.0887 33.1697 19.1214 33.1038 19.1869 33.0049Z" fill="#A6E8A1"/>
<path d="M29.0669 71.6316L30.3428 71.368C31.7496 71.1045 33.1563 70.808 34.5304 70.3462C35.0212 70.1815 35.5119 69.9839 36.0026 69.7203C37.0822 69.1597 38.26 68.6985 39.405 68.2373C39.7649 68.0721 40.1575 67.8744 40.5174 67.7426C41.6297 67.2485 42.7421 66.655 43.9198 66.2267C44.705 65.9632 45.5229 65.7984 46.3735 65.5673C47.0278 65.4026 47.6494 65.2379 48.3037 65.1061C48.6963 65.0402 49.0889 65.0073 49.5142 64.9414C49.8086 64.9084 50.1031 64.8755 50.3975 64.8755C51.1827 64.8755 52.0006 64.9414 52.7531 65.0402C53.5055 65.1061 54.258 65.3037 54.945 65.5673C55.632 65.8643 56.3518 66.1938 57.0061 66.5561C57.791 66.985 58.5436 67.4132 59.2962 67.8744C59.9175 68.2703 60.5065 68.7315 61.0955 69.1597C62.4041 70.1815 63.6145 71.3021 64.7595 72.5545C65.0214 72.8181 65.2179 73.0816 65.4797 73.3457C65.2179 73.5104 64.989 73.7081 64.7272 73.8728C63.222 74.7628 61.6192 75.5534 59.9834 76.1799C58.6089 76.707 57.2024 77.1358 55.7629 77.4652C54.9777 77.6629 54.1599 77.7617 53.3093 77.9264C52.8185 77.9923 52.3277 78.0582 51.8043 78.0912C51.2154 78.157 50.5938 78.1906 50.0377 78.2235C49.2852 78.2564 48.5327 78.2894 47.813 78.2894C47.0606 78.2564 46.3735 78.1906 45.6864 78.1241C45.163 78.0582 44.6068 78.0253 44.0834 77.9594C43.3964 77.8606 42.7093 77.7288 42.0223 77.597C40.5501 77.3005 39.1433 76.8717 37.7365 76.3446C36.9841 76.0811 36.2316 75.7846 35.5119 75.4546C34.8249 75.1581 34.1705 74.8287 33.4835 74.4663C31.9786 73.6751 30.5391 72.7522 29.165 71.6974C29.165 71.6974 29.1323 71.6645 29.0669 71.6316Z" fill="#A6E8A1"/>
<path d="M36.363 17.8779C36.2648 18.669 36.1667 19.394 36.0686 20.185C35.905 21.4044 35.9704 22.6238 35.9377 23.8433V27.3697C35.9377 27.8641 35.8723 28.3585 35.8395 28.8528C35.8068 29.1495 35.8068 29.479 35.7741 29.7757C35.6433 30.9951 35.6105 32.1816 35.676 33.401C35.676 34.192 35.7414 34.95 35.8068 35.741C35.905 36.6967 35.9377 37.6525 35.905 38.6083C35.905 39.1356 35.7741 39.6629 35.6105 40.1573C35.447 40.6187 35.0544 40.9812 34.5309 41.113C34.0401 41.2779 33.5494 41.3767 33.026 41.2119C32.7315 41.113 32.4698 40.9812 32.2081 40.7835C31.5538 40.2891 30.9649 39.6959 30.5069 39.0037C30.1797 38.5753 29.8526 38.1798 29.5254 37.7844C29.1001 37.257 28.6748 36.7297 28.2167 36.2353C27.8569 35.8069 27.4316 35.4444 27.0063 35.0489C26.9408 34.9829 26.8754 34.95 26.8427 34.884C25.7631 33.8294 24.618 32.8407 23.4076 31.8849C22.8514 31.4565 22.3279 30.9951 21.8045 30.5337C21.5427 30.27 21.281 30.0393 21.0193 29.7427C21.052 29.6768 21.0847 29.5779 21.1174 29.479C21.6736 28.5892 22.3279 27.6993 22.9822 26.8754C23.8656 25.7878 24.8143 24.7661 25.8285 23.7773C26.7118 22.9205 27.6606 22.1625 28.6748 21.4374C29.9834 20.5475 31.3575 19.7565 32.8297 19.1303C33.8438 18.669 34.8908 18.3394 35.9704 17.9109C36.0358 17.9439 36.2321 17.9109 36.363 17.8779Z" fill="#A6E8A1"/>
<path d="M37.475 55.4821C37.475 55.4492 37.4423 55.4162 37.4423 55.4162C36.559 55.2185 35.8392 54.065 35.8719 53.1092C35.9046 52.1205 36.0028 51.0988 36.1991 50.11C36.6571 47.6712 37.4096 45.3312 38.0639 42.9583C39.1108 39.4318 40.0923 35.9053 41.1719 32.3788C41.5972 30.9946 42.0879 29.6104 42.5786 28.2262C42.4151 28.0944 42.2188 27.9296 42.0225 27.7648C41.499 27.3034 41.0083 26.809 40.583 26.2487C40.1577 25.7873 39.896 25.1611 39.7651 24.5349C39.667 24.1065 39.6997 23.6451 39.9287 23.2496C40.0923 22.92 40.2231 22.5575 40.3867 22.2609C40.6811 21.7336 41.0737 21.2721 41.6953 21.1074C43.1676 20.6459 44.7706 20.8107 46.112 21.5358C46.6681 21.8324 47.1916 22.1949 47.715 22.5245C47.8132 22.5905 47.8786 22.6563 48.0095 22.5905C48.991 22.2279 50.0379 21.8983 51.0521 21.6676C53.1458 21.1074 55.2397 20.5471 57.3332 20.0527C58.7401 19.6901 60.1799 19.3936 61.5868 19.097C62.8954 18.8333 64.1381 18.6026 65.4467 18.3719C66.5594 18.1741 67.6715 18.0093 68.8165 17.8775C69.6997 17.7786 70.5835 17.7127 71.4667 17.7127C71.9904 17.6797 72.5135 17.6797 73.0372 17.7127C73.3643 17.7457 73.6585 17.7786 73.9857 17.8446C74.4764 18.0093 74.8689 18.4378 74.9018 18.9651C74.9348 19.5583 74.6729 20.1516 74.2146 20.5141C73.3967 21.2392 72.5788 21.9643 71.6632 22.5905C69.209 24.436 66.6577 26.1499 64.0728 27.7648C63.4514 28.1603 62.8295 28.5887 62.2411 29.0172C61.2267 29.7093 60.1469 30.3684 59.0348 30.9617C58.6747 31.1594 58.3152 31.3901 57.9551 31.5879C58.3152 32.1811 58.6424 32.8073 59.1331 33.3016C59.2967 33.4665 59.4926 33.5654 59.6892 33.6312C60.3758 33.8949 61.096 34.1915 61.8157 34.4222C63.1896 34.8836 64.4982 35.5098 65.8068 36.1031C66.4941 36.3997 67.1484 36.7293 67.8351 37.0589C68.0316 37.1577 68.2275 37.2895 68.3911 37.4543C68.7183 37.8169 68.8165 38.3112 68.653 38.7726C68.3587 40.058 67.8027 41.2444 67.0172 42.2991C65.9375 43.7822 64.7271 45.1334 63.4185 46.3529C62.7642 46.9791 62.0445 47.4734 61.2596 47.8689C61.1284 47.9349 60.9978 48.0008 60.8342 48.0338C60.4741 48.0996 60.1469 48.0008 59.918 47.77C59.4603 47.3087 59.0672 46.7813 58.773 46.2211C58.184 45.1994 57.6933 44.1118 57.1699 43.0241C56.4174 41.4092 55.7304 39.7943 54.7489 38.2782C54.6508 38.1135 54.5199 38.0146 54.3563 37.9487C53.9964 37.8169 53.6039 37.6521 53.244 37.4873C52.8841 37.9487 52.5242 38.4101 52.1644 38.8715C50.9212 40.5853 49.7107 42.365 48.402 44.0788C46.5046 46.5506 44.6398 48.9895 42.6114 51.3295C41.6299 52.4501 40.6157 53.5047 39.5361 54.4934C39.0781 54.8889 38.5874 55.2185 38.0312 55.4492L37.475 55.4821Z" fill="#FF596F"/>
<path d="M36.9514 21.7667C37.0496 21.7008 37.1477 21.6019 37.2786 21.6019C38.2273 21.4701 39.1433 21.3712 40.0594 21.3053C40.3865 21.2723 40.681 21.2394 41.0082 21.2394C41.1718 21.2394 41.3353 21.2064 41.4662 21.4041C41.0082 21.8656 40.6155 22.3929 40.3538 22.9202C40.1902 23.1839 40.0921 23.4805 39.9612 23.8101C39.8958 24.0078 39.8304 24.1726 39.7977 24.3703C39.5359 24.2714 39.2742 24.1067 39.0452 23.9089C38.489 23.4805 37.9656 23.0521 37.4094 22.5906C37.2459 22.4259 37.115 22.294 36.9514 22.1292V21.7667Z" fill="#19124F" stroke="#1D184E" stroke-width="0.561615" stroke-miterlimit="10"/>
<path d="M55.8287 82.5405C53.6368 82.5405 50.7578 81.9804 47.9442 80.9916C47.7806 80.9257 47.6498 80.8598 47.5189 80.761C47.1918 80.5298 47.1591 80.0686 47.3553 79.7722C47.5189 79.5745 47.7152 79.4757 47.9769 79.5086C48.1405 79.5086 48.2387 79.5745 48.3695 79.5745C50.1034 80.2004 51.9028 80.6287 53.7349 80.8598C57.5952 81.321 61.3574 80.9587 64.8908 79.2775C69.5039 77.0697 72.4154 73.4773 73.8222 68.5336C74.4112 66.3583 74.6401 64.0841 74.4442 61.8429C74.1494 57.7233 72.8408 53.9332 70.7472 50.4068C69.6675 48.6271 68.4895 46.9462 67.1485 45.3972C66.9849 45.2325 66.8867 45.0347 66.7555 44.8699C66.5919 44.6721 66.5919 44.3755 66.7884 44.1778C66.9849 44.013 67.2792 44.013 67.4757 44.1778C67.6392 44.3096 67.8352 44.4414 67.9664 44.6063C69.7981 46.4518 71.3362 48.5282 72.5789 50.8353C73.9858 53.373 75.0002 56.1085 75.5563 58.9428C76.3088 62.9305 76.1123 66.8524 74.6731 70.6755C72.7425 75.7185 69.2097 79.2116 64.2365 81.1234C61.7829 82.1122 59.2309 82.5405 55.8287 82.5405Z" fill="#19124F" stroke="#1D184E" stroke-width="0.561615" stroke-miterlimit="10"/>
<path d="M59.8528 33.9279C59.8528 34.0927 59.7869 34.2904 59.6234 34.3893C59.4598 34.4882 59.2638 34.4552 59.1656 34.3564C59.0673 34.2575 58.9691 34.1586 58.8714 34.0268C57.9876 32.7085 57.0063 31.4561 55.9267 30.2696C54.7489 29.0172 53.4403 27.8967 52.0008 26.9739C51.0194 26.3147 49.9724 25.7215 48.8601 25.1941C48.5984 25.0623 48.3367 24.8975 48.0749 24.7327C47.8132 24.5679 47.8132 24.4691 47.8786 24.3043C47.9441 24.1395 48.1404 24.1066 48.3694 24.1724C48.9255 24.4361 49.5144 24.6339 50.0706 24.9305C51.9681 25.8203 53.7675 26.9739 55.3378 28.391C56.4174 29.3798 57.3662 30.4344 58.2171 31.5879C58.7078 32.2471 59.1656 32.9062 59.6234 33.5324C59.7216 33.6642 59.7869 33.7961 59.8528 33.9279Z" fill="#19124F" stroke="#1D184E" stroke-width="0.561615" stroke-miterlimit="10"/>
<path d="M49.1218 40.4208C49.1545 40.5856 49.0564 40.7834 48.8601 40.8493C48.6965 40.9152 48.5002 40.8164 48.4021 40.6515C48.3039 40.4868 48.2385 40.322 48.1404 40.1572C47.3552 38.3116 46.4392 36.5978 45.3923 34.9169C45.2287 34.6532 45.0978 34.4225 44.967 34.1589C44.9015 34.06 44.9015 33.9941 44.9015 33.8952C44.8688 33.7305 44.9997 33.5657 45.1633 33.5327C45.2614 33.4997 45.3595 33.5657 45.425 33.6316C45.4904 33.6975 45.5231 33.7305 45.5558 33.7963C46.7663 35.609 47.9113 37.4547 48.762 39.498C48.8601 39.7287 48.9255 39.9594 49.0237 40.1902C49.0891 40.256 49.1218 40.3549 49.1218 40.4208Z" fill="#19124F" stroke="#1D184E" stroke-width="0.561615" stroke-miterlimit="10"/>
<path d="M63.3532 27.1385C63.3862 27.3692 63.222 27.567 62.9931 27.5999C62.9278 27.5999 62.8949 27.5999 62.8295 27.5999C62.6336 27.534 62.47 27.4681 62.2735 27.3692C61.4556 26.9078 60.6377 26.4793 59.8198 26.0179C58.9037 25.5236 57.9875 24.9963 57.0717 24.5019C56.8754 24.403 56.7119 24.2712 56.5156 24.1393C56.4174 24.0735 56.352 23.9746 56.2539 23.8757C56.1884 23.7768 56.1884 23.645 56.2866 23.5461C56.3847 23.4802 56.4829 23.4473 56.581 23.4473C56.6792 23.4802 56.7773 23.5132 56.8427 23.5461L62.6006 26.5782C62.7642 26.6441 62.8949 26.743 63.0584 26.8419C63.255 26.9737 63.2879 27.0397 63.3532 27.1385Z" fill="#19124F" stroke="#1D184E" stroke-width="0.561615" stroke-miterlimit="10"/>
<path d="M60.5718 36.4326C60.6701 36.4656 60.7683 36.4985 60.8666 36.5315C62.4694 37.3554 64.1052 38.2123 65.7086 39.0363C65.9045 39.1351 66.1011 39.2669 66.2646 39.3988C66.4282 39.4976 66.4606 39.6954 66.3953 39.8602C66.33 40.025 66.1334 40.1238 65.9375 40.058C65.8722 40.058 65.8063 40.025 65.7739 39.992C65.6756 39.9261 65.5774 39.9261 65.4791 39.8272C64.0399 39.0363 62.5677 38.2453 61.1279 37.4543C60.9319 37.3554 60.7354 37.2236 60.5718 37.0918C60.4736 37.0259 60.4082 36.9599 60.31 36.861C60.2447 36.7622 60.2447 36.5974 60.31 36.5315C60.3759 36.5315 60.4736 36.4656 60.5718 36.4326Z" fill="#19124F" stroke="#1D184E" stroke-width="0.561615" stroke-miterlimit="10"/>
<path d="M45.3921 45.4628C45.3921 45.7924 45.2612 45.9242 45.0976 45.9901C44.8686 46.056 44.6723 45.9242 44.5742 45.7264C43.9199 44.1774 43.2656 42.5955 42.6439 41.0135C42.513 40.7169 42.4149 40.3873 42.3167 40.0577C42.2513 39.8929 42.284 39.7281 42.4477 39.6292C42.6112 39.5634 42.8075 39.6292 42.873 39.7941V39.827C43.0693 40.2225 43.2328 40.618 43.4291 41.0135C43.9853 42.2989 44.6069 43.5842 45.163 44.8366C45.2939 45.0343 45.3593 45.265 45.3921 45.4628Z" fill="#19124F" stroke="#1D184E" stroke-width="0.561615" stroke-miterlimit="10"/>
<path d="M62.7642 43.9802C62.7971 44.145 62.6989 44.3427 62.5353 44.4086C62.3717 44.4746 62.2081 44.4746 62.0775 44.3427C61.9792 44.2438 61.881 44.145 61.8157 44.0461C61.1284 42.9915 60.4088 41.9368 59.6892 40.8822C59.3291 40.3878 59.0019 39.8605 58.6748 39.3332C58.5765 39.2013 58.5765 39.0365 58.7077 38.9047C58.7077 38.9047 58.7077 38.9047 58.7401 38.8718C58.8713 38.7729 59.0672 38.7729 59.1655 38.9047C59.2308 38.9706 59.2638 39.0036 59.3291 39.0695C59.6238 39.498 59.951 39.8934 60.2452 40.3219C60.9325 41.2447 61.5538 42.2005 62.2081 43.1233C62.3388 43.2881 62.47 43.4529 62.6006 43.6506C62.6989 43.7824 62.7642 43.8813 62.7642 43.9802Z" fill="#19124F" stroke="#1D184E" stroke-width="0.561615" stroke-miterlimit="10"/>
<path d="M67.3114 23.6785C67.3114 23.9751 67.1479 24.1399 66.9519 24.1399C66.7883 24.1399 66.6571 24.074 66.5265 24.041C65.2179 23.3819 63.9746 22.7557 62.666 22.0965C62.5024 22.0306 62.3717 21.9317 62.2405 21.8329C62.1099 21.7669 62.077 21.5692 62.1428 21.4703C62.2082 21.3055 62.3717 21.2396 62.5024 21.3055C62.5677 21.3385 62.666 21.3715 62.7642 21.3715C64.0399 21.9317 65.3161 22.525 66.5594 23.0853C66.7554 23.1512 66.919 23.283 67.1155 23.3819C67.1808 23.4808 67.2461 23.5796 67.3114 23.6785Z" fill="#19124F" stroke="#1D184E" stroke-width="0.561615" stroke-miterlimit="10"/>
<path d="M41.8914 49.517C41.8914 49.9125 41.7606 50.0772 41.5643 50.1102C41.3353 50.1761 41.1062 50.0113 41.0735 49.7806C40.8445 49.1214 40.6155 48.4623 40.3865 47.8361C40.1902 47.2759 39.9939 46.7485 39.7976 46.2212C39.7649 46.1223 39.7322 45.9905 39.7322 45.8916C39.6995 45.7598 39.7976 45.6279 39.9285 45.6279C40.0266 45.6279 40.1248 45.6609 40.2229 45.6939C40.2883 45.7598 40.3211 45.8257 40.3538 45.8916C40.8118 46.8803 41.2699 47.902 41.6952 48.8907C41.7606 49.0885 41.8587 49.3192 41.8914 49.517Z" fill="#19124F" stroke="#1D184E" stroke-width="0.561615" stroke-miterlimit="10"/>
<path d="M70.191 22.0303C70.0274 21.9643 69.8309 21.9643 69.6344 21.8984L66.69 21.0745C66.5264 21.0415 66.3958 20.9097 66.4287 20.7119C66.494 20.5142 66.69 20.3824 66.8865 20.4483C67.2136 20.5142 67.5408 20.6131 67.868 20.679C68.5876 20.8768 69.3401 21.0745 70.0598 21.2723C70.191 21.3381 70.3216 21.3711 70.4199 21.437C70.5505 21.503 70.5834 21.6677 70.5505 21.7996C70.4852 21.9643 70.3546 22.0632 70.191 22.0303Z" fill="#19124F" stroke="#1D184E" stroke-width="0.561615" stroke-miterlimit="10"/>
<path d="M43.0694 24.2058C43.0039 24.3705 42.9058 24.5683 42.8404 24.766C42.7095 24.9967 42.415 25.0956 42.1533 25.0297C41.8916 24.9308 41.728 24.6671 41.7607 24.4035C41.7935 24.2387 41.8262 24.0739 41.9243 23.9421C42.0552 23.6784 42.3169 23.5466 42.6113 23.6125C42.9058 23.6784 43.0694 23.9421 43.0694 24.2058Z" fill="#19124F" stroke="#1D184E" stroke-width="0.561615" stroke-miterlimit="10"/>
</g>
<defs>
<clipPath id="clip0_5_4945">
<rect width="95.988" height="95.42" fill="white" transform="translate(0.506104 0.240234)"/>
</clipPath>
</defs>
</svg>
