<svg width="97" height="95" viewBox="0 0 97 95" fill="none" xmlns="http://www.w3.org/2000/svg">
<g clip-path="url(#clip0_5_5008)">
<g clip-path="url(#clip1_5_5008)">
<g clip-path="url(#clip2_5_5008)">
<path d="M0.535666 43.2997V40.7365C0.568403 40.6068 0.60114 40.5095 0.60114 40.3797C0.633877 39.7957 0.633877 39.2441 0.69935 38.6926C0.863034 37.3298 1.02672 35.9672 1.22314 34.6045C1.41956 33.0471 1.74693 31.4898 2.1725 29.9649C2.72903 28.0182 3.51471 26.1688 4.49681 24.4168C5.05334 23.4435 5.60986 22.4701 6.19912 21.4968C7.08301 19.9394 8.06511 18.4794 9.14542 17.0843C10.4222 15.5269 11.8953 14.1318 13.4994 12.9313C15.1035 11.7308 16.7731 10.6277 18.4754 9.52459C20.767 8.09705 23.1568 6.8966 25.6775 5.8908C26.4631 5.56636 27.2816 5.27435 28.0673 4.98234C29.0494 4.62545 30.0641 4.30101 31.079 3.97656C32.0938 3.6521 33.1087 3.3601 34.1235 3.10054C35.2366 2.80854 36.3824 2.51654 37.4954 2.25698C38.2156 2.09475 38.9031 1.93253 39.6233 1.80275C40.5072 1.64052 41.3911 1.4783 42.3077 1.34852C43.4862 1.1863 44.632 1.02408 45.8105 0.86185C46.8909 0.732071 47.9712 0.602291 49.0515 0.504956C50.4264 0.407621 51.8014 0.277843 53.1763 0.245398C54.1912 0.212953 55.2387 0.342733 56.2535 0.375178C57.6285 0.407622 59.0035 0.537402 60.4111 0.699626C61.8515 0.894296 63.292 1.21874 64.6669 1.64052C65.7799 1.96497 66.8275 2.35432 67.9079 2.7761C68.7262 3.10054 69.5447 3.48988 70.3303 3.87923C71.1815 4.33345 71.9999 4.82012 72.8183 5.33924C73.8004 5.95569 74.7498 6.57214 75.6992 7.28593C76.9432 8.22683 78.1872 9.16773 79.3656 10.1735C80.4132 11.0496 81.3953 11.9905 82.3447 12.9313C83.5233 14.0994 84.6363 15.3322 85.7494 16.5652C87.3207 18.2523 88.7612 20.0692 90.0379 21.9835C90.8237 23.119 91.5109 24.3195 92.1003 25.5848C92.4933 26.4284 92.8862 27.3044 93.2137 28.1479C93.6057 29.1213 93.9987 30.0946 94.2938 31.1004C94.7846 32.5929 95.1775 34.1178 95.505 35.6751C95.6683 36.5187 95.8647 37.3948 96.0289 38.2384C96.2577 39.4387 96.4219 40.6392 96.4542 41.8397C96.5851 44.7273 96.4219 47.6473 95.8979 50.5025C95.6028 52.3194 95.1775 54.1363 94.5881 55.8883C94.0319 57.4781 93.4424 59.0679 92.8862 60.6577C91.8716 63.448 91.0202 66.2707 89.776 68.9636C89.2194 70.1316 88.6629 71.3321 88.0082 72.4676C87.288 73.733 86.5023 74.9335 85.6184 76.1015C84.1125 78.2104 82.312 80.1246 80.2823 81.7468C78.3509 83.2393 76.4193 84.7318 74.4551 86.1918C73.4076 86.9704 72.2618 87.6194 71.1488 88.3007C69.7411 89.1118 68.2679 89.8256 66.762 90.4094C66.0091 90.7018 65.2562 91.0257 64.4705 91.2859C63.3574 91.6429 62.2116 91.9345 61.0658 92.1615C60.4111 92.2916 59.7563 92.454 59.069 92.5832C58.2505 92.7455 57.4321 92.8101 56.6137 92.9725C54.4203 93.3619 52.227 93.5889 50.0008 93.6543C47.7747 93.7512 45.5159 93.6866 43.2898 93.5243C41.5548 93.3942 39.787 93.1995 38.0847 92.8756C35.564 92.4217 33.1087 91.6429 30.7844 90.5395C27.7072 89.0145 24.7609 87.3274 21.88 85.4456C20.2432 84.3424 18.7045 83.0446 17.3296 81.6171C16.1511 80.4166 14.9398 79.2486 13.794 78.0482C13.0411 77.2695 12.2882 76.4908 11.5679 75.6472C10.9459 74.9335 10.3894 74.1548 9.76746 73.4085C8.52342 71.981 7.44311 70.4236 6.46102 68.8013C5.6426 67.4387 4.88965 66.0435 4.23492 64.5835C3.87481 63.74 3.54745 62.9288 3.22008 62.0853C3.02366 61.5661 2.82724 61.0146 2.66355 60.463C2.4344 59.6519 2.27071 58.8733 2.07429 58.0621C1.87787 57.1536 1.64872 56.2777 1.51777 55.3692C1.32135 54.0389 1.12493 52.6763 0.993981 51.3136C0.863034 49.9509 0.764824 48.5558 0.69935 47.1606C0.633877 45.9602 0.568403 44.7597 0.50293 43.5917C0.60114 43.462 0.568403 43.397 0.535666 43.2997Z" fill="white"/>
<path d="M83.4901 46.279C83.2629 44.7782 82.7707 43.3901 81.8622 42.1519C81.2186 41.2515 80.5372 40.3509 79.8179 39.488C78.6065 37.9497 77.13 36.6366 75.5779 35.4734C74.4422 34.6104 73.2308 33.8226 71.9436 33.1847C70.6187 32.5093 69.2937 31.9091 67.9687 31.2337C67.7415 31.1211 67.4765 31.0086 67.2872 30.821C66.5301 30.1456 65.8108 29.4328 65.0537 28.7199C64.7508 28.4572 64.4479 28.2696 64.0315 28.4197C63.6151 28.5323 63.1608 28.5698 62.8201 28.1946C62.7065 28.082 62.555 28.007 62.4037 27.8569C62.328 27.9695 62.2901 28.007 62.2523 28.082C62.0251 28.4197 62.0251 28.3822 62.328 28.6824C62.4037 28.7574 62.4794 28.9075 62.4416 28.9825C62.4037 29.3202 62.555 29.5454 62.7822 29.7704C62.9715 29.9205 63.1608 30.1081 63.3501 30.2957C64.7887 31.6089 66.2651 32.9221 67.7037 34.2728C68.9151 35.3984 70.0508 36.5615 71.2243 37.7246C71.4515 37.9497 71.565 38.1748 71.5272 38.5125C71.4515 39.8632 71.3757 41.2139 71.3379 42.5646V42.9773C71.2622 44.1779 71.1486 45.3786 71.0729 46.5792C71.0351 47.3671 71.073 48.1175 71.0351 48.9054C71.0351 49.093 71.1107 49.2055 71.2622 49.3181C71.8301 49.7308 72.398 50.106 72.9279 50.5563C74.2907 51.7944 75.1615 53.3327 75.6536 55.1337C75.9565 56.3343 76.07 57.5349 75.7293 58.7355C75.6157 59.1858 75.4643 59.636 75.3508 60.0863C75.1994 60.6115 75.3508 61.0617 75.7293 61.2868C76.3351 61.6245 77.5086 61.6996 77.9251 60.724C78.1144 60.2738 78.3036 59.8611 78.4929 59.4109C78.5686 59.2608 78.6443 59.1107 78.7579 59.0357C79.0229 58.773 79.3258 58.5854 79.5908 58.3228C79.5908 58.2477 79.6665 58.2477 79.7421 58.2477C80.4236 58.3228 80.8022 58.1352 81.1051 57.5349C81.2564 57.2348 81.37 56.9721 81.4836 56.6719C81.7107 55.9215 81.9379 55.1712 82.2029 54.4583C82.7707 52.8075 83.1115 51.1565 83.0736 49.4307C83.0736 49.168 83.1115 48.9054 83.1872 48.6802C83.5279 47.8924 83.6415 47.0669 83.4901 46.279Z" fill="#5DD4F6"/>
<path d="M24.2056 30.0332C24.2056 29.6205 24.2056 29.2077 24.2056 28.7575C24.2434 28.72 24.2813 28.6824 24.2813 28.6074C24.5842 27.8195 25.1899 27.2943 25.947 26.919C26.3635 26.6939 26.8178 26.5814 27.2341 26.3937C29.9977 25.1556 32.7235 23.9174 35.4871 22.6794C38.0613 21.5162 40.6356 20.3531 43.2098 19.2275C44.6863 18.5897 46.1627 17.9894 47.6391 17.3516C47.9041 17.239 48.0556 17.2765 48.2827 17.4266C48.737 17.7643 49.267 18.102 49.6834 18.4772C52.2956 20.7284 54.7184 23.2046 57.1413 25.6434C60.3212 28.87 63.5012 32.0968 66.6812 35.3234C67.5519 36.2239 68.4984 37.0494 69.3691 37.9122C69.7477 38.2874 69.9748 38.7752 70.1262 39.3005C70.2398 39.6757 70.164 40.0884 70.1262 40.5011C69.9748 41.9644 69.7855 43.4276 69.672 44.8909C69.4069 47.6673 69.1798 50.4063 68.9148 53.1827C68.8012 54.2332 68.6876 55.2838 68.5741 56.2968C68.5363 56.6345 68.4227 56.8596 68.082 56.9722C67.6655 57.1598 67.3248 57.3849 66.9463 57.61C64.9398 58.7731 62.9712 60.0113 60.927 61.1368C59.2234 62.1124 57.4819 62.9754 55.7784 63.9133C53.6584 65.0764 51.5384 66.277 49.4184 67.4777C48.8884 67.7779 48.2827 67.9655 47.7527 68.2655C47.2605 68.5282 46.8442 68.5282 46.4277 68.228C45.6327 67.6278 44.8377 66.9899 44.0806 66.3896C41.582 64.3635 39.2349 62.2249 37.0013 59.9738C35.6006 58.5481 34.1242 57.1598 32.7992 55.6966C30.5656 53.2203 28.4834 50.6314 26.5149 47.9675C26.3635 47.7799 26.2877 47.5172 26.2499 47.2921C25.8713 44.5533 25.4928 41.8143 25.1142 39.0754C24.7356 36.2989 24.5084 33.5225 24.4327 30.7085C24.2813 30.4084 24.2434 30.2208 24.2056 30.0332Z" fill="#FF596F"/>
<path d="M58.8069 34.4596C56.4219 31.2704 51.084 24.742 47.6012 24.592C46.1626 24.5169 36.6604 28.1187 35.5626 29.9572C34.5026 31.6832 43.6261 41.4007 47.4119 42.864C47.374 42.864 61.2297 37.6862 58.8069 34.4596Z" fill="white"/>
<path d="M48.7374 50.7831C48.6617 51.7587 48.6238 52.7341 48.5481 53.7097C48.3588 56.7863 48.1695 59.9003 47.9802 62.977C47.9045 64.2526 47.7531 65.5283 47.6017 66.7664C47.5638 66.954 47.526 67.1791 47.4503 67.3668C47.3367 67.5919 47.1095 67.7044 46.8445 67.6669C46.5795 67.6294 46.4281 67.5168 46.3524 67.2917C46.3146 67.1416 46.2767 66.954 46.2767 66.7664C46.3146 64.6278 46.3146 62.4892 46.3902 60.3506C46.5038 57.3865 46.6552 54.385 46.7688 51.421C46.7688 51.0833 46.6931 50.8581 46.4659 50.633C42.756 46.9561 39.046 43.3167 35.3738 39.6023C32.3074 36.5257 29.3167 33.3741 26.2882 30.2599C26.1367 30.1099 26.0232 29.9598 25.9474 29.8097C25.796 29.547 25.8339 29.3219 26.0232 29.0968C26.2125 28.9093 26.4774 28.8717 26.7424 29.0218C26.9696 29.1718 27.1589 29.3219 27.3482 29.5095C30.2253 32.2485 33.1403 34.9874 36.0174 37.7639C39.8031 41.4407 43.551 45.1928 47.2988 48.8696C47.6774 49.2448 47.9802 49.2448 48.4345 49.0197C49.7595 48.3443 51.1224 47.7065 52.4473 47.0312C55.5895 45.4928 58.7695 43.9921 61.9117 42.4913C63.8802 41.5533 65.8488 40.6528 67.8174 39.7524C67.9687 39.6773 68.0823 39.6398 68.2337 39.6023C68.5366 39.5648 68.8016 39.6773 68.9152 39.94C69.0288 40.2026 68.9531 40.5028 68.7259 40.6528C68.5366 40.8029 68.3473 40.9154 68.158 41.028C66.6059 41.8535 65.016 42.6789 63.4638 43.4668C60.1702 45.1177 56.8766 46.7685 53.583 48.4194C52.1823 49.1323 50.7816 49.8077 49.4188 50.4829C49.1917 50.633 49.0024 50.7081 48.7374 50.7831Z" fill="#19124F"/>
<path d="M46.958 29.1335C46.5038 30.1089 46.0495 30.9719 44.7624 30.8593C44.4595 31.9849 44.043 32.9604 42.718 33.1105C42.6423 33.2606 42.6045 33.3731 42.5666 33.4857C42.3395 33.9735 41.9231 34.161 41.4309 34.086C41.0902 34.0485 40.8631 33.8234 40.8631 33.5608C40.8253 33.2981 40.9766 33.1105 41.3552 32.9979C41.4309 32.9604 41.5066 32.9604 41.6581 32.9229C41.4309 32.7728 41.2795 32.6602 41.128 32.5477C40.4467 32.0599 39.9166 31.4221 39.6516 30.5967C39.5759 30.334 39.538 29.9963 39.5759 29.7337C39.6516 29.171 40.2195 28.8708 40.7874 29.0209C41.3931 29.171 41.7716 29.5836 42.0745 30.1089C42.3017 30.4841 42.4152 30.8968 42.6045 31.3096C42.6423 31.4597 42.6802 31.5722 42.7559 31.7222C43.0588 31.6472 43.1724 31.4221 43.2859 31.197C43.4752 30.6717 43.551 30.1089 43.4374 29.5461C43.4374 29.471 43.3995 29.3585 43.3617 29.2835C43.3238 28.9083 43.5131 28.5706 43.8537 28.4581C44.1945 28.3455 44.4973 28.4956 44.6866 28.8333C44.8002 28.9834 44.8759 29.171 44.9895 29.321C45.0274 29.3585 45.0652 29.3585 45.141 29.396C45.2166 29.321 45.2923 29.246 45.368 29.1335C45.4437 29.0209 45.5195 28.8708 45.5952 28.7207C46.0495 27.5576 46.7309 27.4825 48.056 27.7077C48.4345 27.7827 48.6238 28.0829 48.5859 28.4206C48.548 28.7582 48.3209 29.0209 47.9424 29.0584C47.5638 29.171 47.2988 29.1335 46.958 29.1335Z" fill="#19124F"/>
<path d="M48.0938 33.1864C48.3588 32.9613 48.5481 32.7737 48.7752 32.5861C49.2295 32.2109 49.6459 31.8357 50.1381 31.5355C50.4031 31.3479 50.7437 31.2354 51.0466 31.1603C51.5388 31.0103 51.9931 31.2729 52.1066 31.6856C52.2202 32.0984 51.9931 32.5111 51.5009 32.6236C50.9709 32.7737 50.5167 33.1114 50.1381 33.449C49.8731 33.6741 49.6459 33.9368 49.343 34.1244C48.6995 34.6497 48.2831 34.7247 47.4124 34.5371C47.2231 34.7998 47.0717 35.0624 46.8824 35.3626C46.4659 35.9253 46.0117 36.4131 45.3302 36.6382C44.7245 36.8633 44.0809 36.9009 43.513 36.4881C43.3995 36.4131 43.286 36.3005 43.2103 36.188C43.0588 36.0004 43.0588 35.7752 43.2103 35.5502C43.3616 35.3626 43.6266 35.2876 43.8159 35.4001C44.4595 35.7752 44.9516 35.4752 45.3681 35.0249C45.8224 34.5371 46.1253 33.9368 46.3902 33.3365C46.4659 33.1865 46.5038 33.0739 46.5795 32.9238C46.8824 32.436 47.4502 32.3985 47.8287 32.8113C47.9423 32.9613 47.9802 33.0364 48.0938 33.1864Z" fill="#19124F"/>
<path d="M51.0847 37.5747C51.009 37.5747 50.9712 37.6122 50.8954 37.5747C50.4411 37.3495 50.1383 37.6122 49.8355 37.9124C49.5705 38.175 49.2676 38.4377 48.9268 38.6627C48.5105 38.9628 48.0183 39.0754 47.4883 38.9253C47.1855 38.8503 46.9205 38.7002 46.8069 38.4376C46.7312 38.2876 46.769 38.0624 46.8448 37.8748C46.9205 37.6872 47.1476 37.6122 47.3368 37.6872C47.8669 37.9124 48.2076 37.6122 48.5105 37.312C48.8511 36.9743 49.154 36.6366 49.4947 36.299C49.7976 35.9614 50.214 35.8863 50.6304 35.9989C51.009 36.1114 51.3498 36.0364 51.6525 35.8113C52.2583 35.4361 52.864 35.0233 53.5076 34.6481C53.6211 34.5731 53.7726 34.498 53.924 34.4605C54.189 34.3855 54.4541 34.423 54.6433 34.6106C54.8704 34.8357 54.9083 35.0984 54.7947 35.361C54.6811 35.5861 54.5297 35.8113 54.3026 35.9238C53.7347 36.299 53.129 36.6742 52.5233 37.0118C52.1447 37.3495 51.6525 37.5747 51.0847 37.5747Z" fill="#19124F"/>
<path d="M25.5684 77.9458V78.5085C25.6062 79.8592 25.5306 81.2099 25.3791 82.5231C25.3413 82.8232 25.3413 83.1609 25.0384 83.4236C24.7355 83.6862 24.5462 83.6862 24.2812 83.386C23.4484 82.5607 22.8426 81.5851 22.2748 80.5721C21.0256 78.471 19.7384 76.3324 18.4134 74.2313C17.8834 73.3683 17.3534 72.5054 16.8991 71.6424C15.8391 69.6539 14.7412 67.7029 13.6813 65.7144C13.5298 65.4142 13.3784 65.0765 13.227 64.8139C12.8105 64.176 12.9998 63.6133 13.4163 63.088C14.4384 61.8873 15.4984 60.6868 16.5206 59.4861C16.7477 59.2235 17.0127 58.9984 17.2398 58.7358C18.1106 57.8728 18.9812 56.9723 19.9276 56.1094C21.0256 55.0963 22.1612 54.1209 23.2969 53.1078C23.6755 52.7701 24.092 52.5074 24.5084 52.1699C24.7355 51.9822 24.9627 51.9822 25.2277 51.9822C25.417 51.9822 25.5306 52.0573 25.6063 52.2074C25.8333 52.695 26.0226 53.2579 26.0226 53.7832C26.0226 55.1338 26.0226 56.4471 26.0605 57.7977C26.0984 58.8108 26.1362 59.7862 26.2498 60.7993C26.2877 61.212 26.477 61.5872 26.5905 61.9999C26.7041 62.4126 27.2719 62.6377 27.7641 62.4501C28.1048 62.3001 28.4077 62.3001 28.7483 62.4877C29.9219 63.013 31.1334 63.5007 32.3827 63.8009C33.7834 64.1385 35.2219 64.4011 36.6605 64.3261C36.9634 64.2886 37.2662 64.2511 37.4555 64.026C37.569 63.8759 37.7205 63.8759 37.9098 63.9134C39.3105 64.176 40.7491 64.4762 42.1498 64.7388C42.9069 64.8889 43.6641 64.964 44.4212 65.0765C45.4055 65.1891 46.3898 65.3017 47.374 65.4142C47.7905 65.4517 48.2069 65.4893 48.6233 65.5268C49.6076 65.5643 50.5919 65.6018 51.5761 65.6393C52.4469 65.6769 53.2797 65.7519 54.1505 65.7144C55.1726 65.6769 56.2326 65.5643 57.2547 65.4893C57.709 65.4517 58.2012 65.4142 58.6554 65.3767C60.5861 65.3016 62.479 64.964 64.334 64.5137C65.6969 64.176 67.0976 63.8384 68.4605 63.4632C69.0283 63.3131 69.5961 63.088 70.1639 62.8254C72.3597 61.8123 74.4039 60.5742 76.259 59.0734C77.8111 57.8352 79.0604 56.3345 80.0447 54.6086C80.8018 53.2954 81.3318 51.8697 81.8997 50.4814C82.354 49.4309 82.5433 48.3428 82.8083 47.2548C82.846 47.0672 82.8839 46.8796 82.9975 46.767C83.1111 46.6169 83.3004 46.5044 83.4897 46.5044C83.6032 46.5044 83.7168 46.692 83.8304 46.8045C83.8683 46.8421 83.8683 46.9171 83.9061 46.9546C84.5875 47.63 84.3603 48.3803 84.1711 49.1307C83.5275 52.1699 82.8461 55.2089 82.2025 58.248C81.7861 60.199 81.4075 62.1124 80.9154 64.026C80.5368 65.6018 80.0446 67.1401 79.5904 68.7159C79.5526 68.9035 79.4768 69.1286 79.4011 69.3162C79.2118 70.1042 78.7196 70.7795 78.2276 71.4173C77.4325 72.3553 76.6376 73.2558 75.6533 73.9686C74.8961 74.5314 74.0633 75.0567 73.2682 75.6196C71.9054 76.4824 70.5425 77.3079 69.0661 78.0208C66.7947 79.1463 64.4097 79.9718 61.949 80.6096C60.4726 80.9848 58.9583 81.3225 57.444 81.5851C56.3462 81.7727 55.2105 81.8478 54.0748 81.9979C51.3491 82.3355 48.6611 82.298 45.9354 82.223C44.8376 82.223 43.7776 82.0729 42.6798 81.9979C42.0362 81.9603 41.4304 81.8853 40.7869 81.8102C39.8784 81.6977 39.0076 81.5851 38.0991 81.435C36.2441 81.0598 34.3512 80.7221 32.4962 80.272C31.1713 79.9718 29.8463 79.5216 28.559 79.1839C27.6126 78.9212 26.742 78.5835 25.8712 78.1333C25.7955 77.9833 25.7198 77.9833 25.5684 77.9458Z" fill="#A6E8A1"/>
<path d="M48.0936 66.8016C44.5729 66.7641 41.09 66.4639 37.6072 65.9387C34.3136 65.4509 31.0957 64.663 27.9158 63.6125C27.3858 63.4249 26.8557 63.2373 26.3258 63.0497C25.9472 62.9371 25.7579 62.6745 25.5686 62.3743C25.4929 62.2617 25.4929 62.0366 25.5307 61.9241C25.72 61.3613 26.3636 61.0987 26.9314 61.2863C29.8086 62.2617 32.7236 63.0497 35.7143 63.575C38.44 64.0627 41.1657 64.4004 43.9292 64.5504C46.655 64.7005 49.4186 64.7005 52.1443 64.5129C57.6335 64.1377 62.9714 63.1247 68.12 61.1362C71.2242 59.9355 74.1392 58.3973 76.6757 56.2211C78.3792 54.7953 79.8177 53.182 80.7642 51.1935C82.2407 48.1169 82.1649 45.0403 80.6506 41.9637C79.6285 39.8626 78.0764 38.1367 76.3349 36.5984C74.2149 34.7599 71.8299 33.2592 69.2557 32.0585C67.6278 31.3081 65.9242 30.6328 64.2585 29.9199C63.8421 29.7698 63.4257 29.6573 63.0092 29.5447C62.4036 29.3946 61.9871 28.9819 61.5707 28.5692C61.3814 28.3817 61.4192 28.194 61.6085 27.9689C62.025 27.5187 62.5549 27.3686 63.1228 27.4811C66.3028 28.2691 69.2935 29.4697 72.1707 31.0079C74.4421 32.2086 76.5621 33.6718 78.4549 35.3978C80.5371 37.3488 82.2785 39.5249 83.2628 42.2264C84.6256 45.8657 84.3227 49.3551 82.43 52.7693C80.8778 55.5833 78.6063 57.7219 75.9563 59.5228C73.1549 61.3988 70.0885 62.787 66.9085 63.8376C62.4792 65.3009 57.9364 66.1262 53.28 66.4639C51.5764 66.6515 49.835 66.689 48.0936 66.8016Z" fill="#19124F"/>
</g>
</g>
</g>
<defs>
<clipPath id="clip0_5_5008">
<rect width="96" height="94.2" fill="white" transform="translate(0.5 0.240234)"/>
</clipPath>
<clipPath id="clip1_5_5008">
<rect width="96" height="94.2" fill="white" transform="translate(0.5 0.240234)"/>
</clipPath>
<clipPath id="clip2_5_5008">
<rect width="95.9943" height="94.2" fill="white" transform="translate(0.50293 0.240234)"/>
</clipPath>
</defs>
</svg>
